<svg width="70.000000" height="76.000000" viewBox="0 0 70 76" fill="none" xmlns="http://www.w3.org/2000/svg" xmlns:xlink="http://www.w3.org/1999/xlink">
	<desc>
			Created with Pixso.
	</desc>
	<defs>
		<clipPath id="clip2696_730">
			<rect id="013-telescope-1" width="32.000000" height="32.000000" transform="translate(19.000000 22.000000)" fill="white" fill-opacity="0"/>
		</clipPath>
		<clipPath id="clip2696_729">
			<rect id="icon cool-icon-n20" width="32.000000" height="32.000000" transform="translate(19.000000 22.000000)" fill="white" fill-opacity="0"/>
		</clipPath>
		<clipPath id="clip2685_5151">
			<rect id="fixed-width" rx="10.000000" width="70.000000" height="76.000000" fill="white" fill-opacity="0"/>
		</clipPath>
	</defs>
	<rect id="fixed-width" rx="10.000000" width="70.000000" height="76.000000" fill="#DDEEFE" fill-opacity="1.000000"/>
	<g clip-path="url(#clip2685_5151)">
		<g clip-path="url(#clip2696_729)">
			<rect id="013-telescope-1" width="32.000000" height="32.000000" transform="translate(19.000000 22.000000)" fill="#FFFFFF" fill-opacity="0"/>
			<g clip-path="url(#clip2696_730)">
				<path id="Vector" d="M32.5938 34.4941C32.6328 34.4648 32.6719 34.4375 32.7109 34.4102C32.8105 34.3398 32.9141 34.2754 33.0215 34.2168C33.0625 34.1934 33.1035 34.1719 33.1465 34.1504C34.1523 33.6621 35.3516 33.8281 36.1875 34.5664C36.2305 34.6055 36.2676 34.6484 36.3086 34.6895C36.3926 34.7715 36.4707 34.8574 36.5449 34.9473C36.5859 35 36.6211 35.0566 36.6582 35.1113C36.7168 35.1973 36.7734 35.2871 36.8223 35.3809C36.8535 35.4414 36.8828 35.5039 36.9102 35.5664C36.9512 35.6602 36.9863 35.7578 37.0176 35.8555C37.0371 35.9199 37.0566 35.9863 37.0742 36.0527C37.0957 36.1543 37.1133 36.2578 37.125 36.3613C37.1328 36.4277 37.1426 36.4922 37.1465 36.5566C37.1504 36.6719 37.1465 36.7852 37.1367 36.9004C37.1328 36.957 37.1328 37.0117 37.127 37.0684C37.1035 37.2324 37.0664 37.3945 37.0137 37.5527C37.0137 37.5605 37.0117 37.5684 37.0078 37.5762L38.5176 38.4473L41.3281 33.5762L25.7539 24.582L22.9434 29.4531L32.2422 34.8203C32.3496 34.7031 32.4688 34.5938 32.5938 34.4941Z" fill="#2DC071" fill-opacity="1.000000" fill-rule="nonzero"/>
				<path id="Vector" d="M20.1543 29.7891L24.6504 22L25.625 22.5625L21.127 30.3496L20.1543 29.7891Z" fill="#2DC071" fill-opacity="1.000000" fill-rule="nonzero"/>
				<path id="Vector" d="M45.4883 39.873L46.0508 38.8984L49.9453 41.1465L49.3828 42.1211L45.4883 39.873Z" fill="#2DC071" fill-opacity="1.000000" fill-rule="nonzero"/>
				<path id="Vector" d="M40.0586 38.0332L41.7441 35.1133L45.6387 37.3613L43.9531 40.2812L40.0586 38.0332Z" fill="#2DC071" fill-opacity="1.000000" fill-rule="nonzero"/>
				<path id="Vector" d="M35.6699 37.9648C35.6445 37.918 35.6113 37.873 35.5742 37.8359C35.6621 37.7441 35.7402 37.6426 35.8047 37.5312C36.2695 36.7246 35.9941 35.6953 35.1914 35.2246C35.0742 35.1602 34.9512 35.1094 34.8242 35.0742C34.7871 35.0625 34.748 35.0547 34.7129 35.0469C34.6191 35.0273 34.5254 35.0137 34.4316 35.0098C34.3906 35.0098 34.3516 35.0059 34.3105 35.0059C34.1758 35.0098 34.043 35.0273 33.9121 35.0625C33.3398 35.2129 32.8887 35.6543 32.7285 36.2246C32.5664 36.7949 32.7168 37.4082 33.127 37.8379C33.0879 37.875 33.0547 37.918 33.0293 37.9648L25.4121 53.1855C25.2734 53.4648 25.3867 53.8027 25.6641 53.9414C25.9434 54.0801 26.2812 53.9668 26.4199 53.6895L33.7852 38.9512L33.7852 53.4375C33.7852 53.748 34.0371 54 34.3477 54C34.6582 54 34.9102 53.748 34.9102 53.4375L34.9102 38.9551L42.2734 53.6895C42.4121 53.9668 42.75 54.0801 43.0273 53.9414C43.3047 53.8027 43.418 53.4648 43.2793 53.1855L35.6699 37.9648Z" fill="#2DC071" fill-opacity="1.000000" fill-rule="nonzero"/>
			</g>
		</g>
	</g>
</svg>
