<svg width="26.000000" height="20.000000" viewBox="0 0 26 20" fill="none" xmlns="http://www.w3.org/2000/svg" xmlns:xlink="http://www.w3.org/1999/xlink">
	<desc>
			Created with Pixso.
	</desc>
	<defs/>
	<path id="Vector" d="M0.0820312 2.5918C0.244141 1.85547 0.648438 1.19727 1.22266 0.726562C1.79883 0.255859 2.51367 0 3.25 0L22.75 0C23.4863 0 24.2012 0.255859 24.7773 0.726562C25.3516 1.19727 25.7559 1.85547 25.918 2.5918L13 10.6895L0.0820312 2.5918ZM0 4.49414L0 16.3359L9.42969 10.4043L0 4.49414ZM10.9863 11.3828L0.310547 18.0957C0.574219 18.666 0.990234 19.1465 1.51172 19.4844C2.03125 19.8223 2.63477 20 3.25 20L22.75 20C23.3652 20 23.9688 19.8203 24.4883 19.4844C25.0078 19.1465 25.4238 18.6641 25.6875 18.0938L15.0117 11.3809L13 12.6426L10.9863 11.3809L10.9863 11.3828ZM16.5703 10.4062L26 16.3359L26 4.49414L16.5703 10.4043L16.5703 10.4062Z" fill="#FF6551" fill-opacity="1.000000" fill-rule="evenodd"/>
</svg>
