<svg width="24.000000" height="30.000000" viewBox="0 0 24 30" fill="none" xmlns="http://www.w3.org/2000/svg" xmlns:xlink="http://www.w3.org/1999/xlink">
	<desc>
			Created with Pixso.
	</desc>
	<defs/>
	<path id="Vector" d="M12 30C11.6875 30 11.3848 29.9023 11.1309 29.7207C10.6738 29.3984 -0.0429688 21.6602 0 11.9922C0 5.38281 5.38281 0 12 0C18.6172 0 24 5.38281 24 12C24.043 21.6602 13.3262 29.3984 12.8691 29.7207C12.6152 29.9023 12.3125 30 12 30ZM21 12.0078C21 7.03711 16.9629 3 12 3C7.03711 3 3 7.03711 3 12C2.96875 18.6621 9.58398 24.6406 12 26.6016C14.418 24.6426 21.0312 18.6641 21 12.0078ZM18 12C18 15.3086 15.3086 18 12 18C8.69141 18 6 15.3086 6 12C6 8.69141 8.69141 6 12 6C15.3086 6 18 8.69141 18 12ZM15 12C15 10.3457 13.6543 9 12 9C10.3457 9 9 10.3457 9 12C9 13.6543 10.3457 15 12 15C13.6543 15 15 13.6543 15 12Z" fill="#FF6551" fill-opacity="1.000000" fill-rule="evenodd"/>
</svg>
