<svg width="22.806641" height="22.806641" viewBox="0 0 22.8066 22.8066" fill="none" xmlns="http://www.w3.org/2000/svg" xmlns:xlink="http://www.w3.org/1999/xlink">
	<desc>
			Created with Pixso.
	</desc>
	<defs/>
	<path id="Vector" d="M17.6543 12.3516C17.543 12.2402 17.4102 12.1523 17.2656 12.0918C17.1191 12.0312 16.9629 12 16.8066 12C16.6484 12 16.4922 12.0312 16.3477 12.0918C16.2012 12.1523 16.0684 12.2402 15.957 12.3516L14.0449 14.2637C13.1582 14 11.5039 13.4004 10.4551 12.3516C9.40625 11.3027 8.80664 9.64844 8.54102 8.76172L10.4551 6.84766C10.5664 6.73633 10.6543 6.60547 10.7148 6.45898C10.7754 6.31445 10.8066 6.1582 10.8066 6C10.8066 5.8418 10.7754 5.6875 10.7148 5.54102C10.6543 5.39453 10.5664 5.26367 10.4551 5.15234L5.6543 0.351562C5.54297 0.240234 5.41016 0.152344 5.26562 0.0917969C5.11914 0.03125 4.96289 0 4.80664 0C4.64844 0 4.49219 0.03125 4.34766 0.0917969C4.20117 0.152344 4.06836 0.240234 3.95703 0.351562L0.703125 3.60547C0.248047 4.0625 -0.00976562 4.68945 0 5.32812C0.0273438 7.03711 0.480469 12.9727 5.1582 17.6504C9.83594 22.3281 15.7695 22.7793 17.4805 22.8066L17.5137 22.8066C18.1484 22.8066 18.7461 22.5566 19.1992 22.1035L22.4551 18.8496C22.5664 18.7383 22.6543 18.6055 22.7148 18.4609C22.7754 18.3145 22.8066 18.1582 22.8066 18.002C22.8066 17.8438 22.7754 17.6875 22.7148 17.543C22.6543 17.3965 22.5664 17.2637 22.4551 17.1523L17.6543 12.3516ZM17.502 20.4062C16.0039 20.3809 10.8809 19.9785 6.85547 15.9512C2.81641 11.9121 2.42383 6.77148 2.40039 5.30273L4.80664 2.89648L7.91016 6L6.35742 7.55273C6.2168 7.69336 6.11328 7.86719 6.05664 8.05859C6 8.24805 5.99023 8.45117 6.03125 8.64648C6.06055 8.7832 6.76367 12.0566 8.75586 14.0488C10.748 16.041 14.0215 16.7441 14.1582 16.7734C14.3535 16.8164 14.5566 16.8086 14.748 16.752C14.9395 16.6934 15.1133 16.5898 15.2539 16.4492L16.8066 14.8965L19.9102 18L17.502 20.4062Z" fill="#FF6551" fill-opacity="1.000000" fill-rule="nonzero"/>
</svg>
