<svg width="16.000000" height="16.000000" viewBox="0 0 16 16" fill="none" xmlns="http://www.w3.org/2000/svg" xmlns:xlink="http://www.w3.org/1999/xlink">
	<desc>
			Created with Pixso.
	</desc>
	<defs>
		<clipPath id="clip2685_5255">
			<rect id="Frame sec-" width="16.000000" height="16.000000" fill="white" fill-opacity="0"/>
		</clipPath>
	</defs>
	<rect id="Frame sec-" width="16.000000" height="16.000000" fill="#FFFFFF" fill-opacity="0"/>
	<g clip-path="url(#clip2685_5255)">
		<path id="Vector" d="M0.5 9.90039C0.632812 9.90039 0.759766 9.95312 0.853516 10.0469C0.947266 10.1406 1 10.2676 1 10.4004L1 12.9004C1 13.166 1.10547 13.4199 1.29297 13.6074C1.48047 13.7949 1.73438 13.9004 2 13.9004L14 13.9004C14.2656 13.9004 14.5195 13.7949 14.707 13.6074C14.8945 13.4199 15 13.166 15 12.9004L15 10.4004C15 10.2676 15.0527 10.1406 15.1465 10.0469C15.2402 9.95312 15.3672 9.90039 15.5 9.90039C15.6328 9.90039 15.7598 9.95312 15.8535 10.0469C15.9473 10.1406 16 10.2676 16 10.4004L16 12.9004C16 13.4316 15.7891 13.9395 15.4141 14.3145C15.0391 14.6895 14.5312 14.9004 14 14.9004L2 14.9004C1.46875 14.9004 0.960938 14.6895 0.585938 14.3145C0.210938 13.9395 0 13.4316 0 12.9004L0 10.4004C0 10.2676 0.0527344 10.1406 0.146484 10.0469C0.240234 9.95312 0.367188 9.90039 0.5 9.90039Z" fill="#737373" fill-opacity="1.000000" fill-rule="nonzero"/>
		<path id="Vector" d="M7.64648 11.8535C7.69336 11.9004 7.74805 11.9375 7.80859 11.9629C7.86914 11.9883 7.93555 12 8 12C8.06641 12 8.13086 11.9883 8.19141 11.9629C8.25391 11.9375 8.30859 11.9004 8.35547 11.8535L11.3555 8.85352C11.4492 8.75977 11.502 8.63281 11.502 8.5C11.502 8.36719 11.4492 8.24023 11.3555 8.14648C11.2617 8.05273 11.1328 8 11 8C10.8672 8 10.7402 8.05273 10.6465 8.14648L8.5 10.293L8.5 1.5C8.5 1.36719 8.44727 1.24023 8.35352 1.14648C8.25977 1.05273 8.13281 1 8 1C7.86719 1 7.74023 1.05273 7.64648 1.14648C7.55273 1.24023 7.5 1.36719 7.5 1.5L7.5 10.293L5.35547 8.14648C5.26172 8.05273 5.13281 8 5 8C4.86719 8 4.74023 8.05273 4.64648 8.14648C4.55273 8.24023 4.5 8.36719 4.5 8.5C4.5 8.63281 4.55273 8.75977 4.64648 8.85352L7.64648 11.8535Z" fill="#737373" fill-opacity="1.000000" fill-rule="nonzero"/>
	</g>
</svg>
