<svg width="20.000000" height="20.000000" viewBox="0 0 20 20" fill="none" xmlns="http://www.w3.org/2000/svg" xmlns:xlink="http://www.w3.org/1999/xlink">
	<desc>
			Created with Pixso.
	</desc>
	<defs>
		<clipPath id="clip2685_5239">
			<rect id="icn favorite" width="20.000000" height="20.000000" fill="white" fill-opacity="0"/>
		</clipPath>
	</defs>
	<rect id="icn favorite" width="20.000000" height="20.000000" fill="#FFFFFF" fill-opacity="0"/>
	<g clip-path="url(#clip2685_5239)">
		<path id="Vector" d="M12.5 10C12.5 10.6621 12.2363 11.2988 11.7676 11.7676C11.2988 12.2363 10.6621 12.5 10 12.5C9.33789 12.5 8.70117 12.2363 8.23242 11.7676C7.76367 11.2988 7.5 10.6621 7.5 10C7.5 9.33789 7.76367 8.70117 8.23242 8.23242C8.70117 7.76367 9.33789 7.5 10 7.5C10.6621 7.5 11.2988 7.76367 11.7676 8.23242C12.2363 8.70117 12.5 9.33789 12.5 10Z" fill="#000000" fill-opacity="1.000000" fill-rule="nonzero"/>
		<path id="Vector" d="M2 10C2 10 5 4.5 10 4.5C15 4.5 18 10 18 10C18 10 15 15.5 10 15.5C5 15.5 2 10 2 10ZM10 13.5C10.9277 13.5 11.8184 13.1309 12.4746 12.4746C13.1309 11.8184 13.5 10.9277 13.5 10C13.5 9.07227 13.1309 8.18164 12.4746 7.52539C11.8184 6.86914 10.9277 6.5 10 6.5C9.07227 6.5 8.18164 6.86914 7.52539 7.52539C6.86914 8.18164 6.5 9.07227 6.5 10C6.5 10.9277 6.86914 11.8184 7.52539 12.4746C8.18164 13.1309 9.07227 13.5 10 13.5Z" fill="#000000" fill-opacity="1.000000" fill-rule="nonzero"/>
	</g>
</svg>
