<svg width="17.503906" height="15.625000" viewBox="0 0 17.5039 15.625" fill="none" xmlns="http://www.w3.org/2000/svg" xmlns:xlink="http://www.w3.org/1999/xlink">
	<desc>
			Created with Pixso.
	</desc>
	<defs/>
	<path id="Vector" d="M12.7832 1.25C13.2383 1.25 13.6895 1.33984 14.1074 1.51562C14.5273 1.69141 14.9082 1.94922 15.2266 2.27539C15.8828 2.94141 16.252 3.83984 16.252 4.77539C16.252 5.71094 15.8828 6.60938 15.2266 7.27539L8.75195 13.832L2.27734 7.27539C1.62109 6.60938 1.25195 5.71094 1.25195 4.77539C1.25195 3.83984 1.62109 2.94141 2.27734 2.27539C2.5957 1.95117 2.97656 1.69336 3.39453 1.51562C3.81445 1.33984 4.26562 1.25 4.7207 1.25C5.17578 1.25 5.625 1.33984 6.04492 1.51562C6.46484 1.69336 6.8457 1.95117 7.16406 2.27539L8.75195 3.90039L10.332 2.28711C10.6504 1.95898 11.0312 1.69727 11.4531 1.51953C11.873 1.3418 12.3262 1.25 12.7832 1.25ZM12.7832 0C12.1621 0 11.5469 0.123047 10.9727 0.363281C10.4004 0.603516 9.88086 0.957031 9.44531 1.40039L8.75195 2.09961L8.05859 1.40039C7.62305 0.957031 7.10352 0.605469 6.5293 0.365234C5.95703 0.125 5.3418 0.00195312 4.7207 0.00195312C4.09961 0.00195312 3.48438 0.125 2.91016 0.365234C2.33789 0.605469 1.81836 0.957031 1.38281 1.40039C0.496094 2.30273 0 3.51562 0 4.78125C0 6.04688 0.496094 7.25977 1.38281 8.16211L8.75195 15.625L16.1211 8.16211C17.0059 7.25977 17.5039 6.04688 17.5039 4.78125C17.5039 3.51562 17.0059 2.30273 16.1211 1.40039C15.6855 0.957031 15.166 0.605469 14.5918 0.365234C14.0195 0.125 13.4043 0 12.7832 0Z" fill="#BDBDBD" fill-opacity="1.000000" fill-rule="nonzero"/>
	<path id="Vector" d="M8.3125 1.65625L8.05859 1.40039C7.62305 0.957031 7.10352 0.605469 6.5293 0.365234C5.95703 0.125 5.3418 0.00195312 4.7207 0.00195312C4.09961 0.00195312 3.48438 0.125 2.91016 0.365234C2.33789 0.605469 1.81836 0.957031 1.38281 1.40039C0.496094 2.30273 0 3.51562 0 4.78125C0 6.04688 0.496094 7.25977 1.38281 8.16211L8.3125 15.1797L8.75195 15.625L9.19141 15.1797L16.1211 8.16211C17.0059 7.25977 17.5039 6.04688 17.5039 4.78125C17.5039 3.51562 17.0059 2.30273 16.1211 1.40039C15.6855 0.957031 15.166 0.605469 14.5918 0.365234C14.0195 0.125 13.4043 0 12.7832 0C12.1621 0 11.5469 0.123047 10.9727 0.363281C10.4004 0.603516 9.88086 0.957031 9.44531 1.40039L9.19141 1.65625L8.75195 2.09961L8.3125 1.65625ZM8.75195 14.7363L15.6758 7.72266Q15.957 7.4375 16.1758 7.10938Q16.4062 6.76367 16.5664 6.37109Q16.7227 5.98828 16.8008 5.5918Q16.8789 5.19336 16.8789 4.78125Q16.8789 4.36914 16.8008 3.9707Q16.7227 3.57422 16.5664 3.19141Q16.4102 2.80859 16.1875 2.4707Q15.9648 2.13281 15.6738 1.83789Q15.459 1.61719 15.2148 1.43555Q15.457 1.61719 15.6738 1.83789Q15.9551 2.125 16.1738 2.45312Q16.4043 2.79688 16.5625 3.1875Q16.7207 3.56836 16.7988 3.96484Q16.877 4.36328 16.877 4.77539Q16.877 5.1875 16.7988 5.58398Q16.7207 5.98047 16.5625 6.36328Q16.4062 6.74414 16.1836 7.08203Q15.9609 7.41992 15.6719 7.71289L8.75195 14.7207L1.83203 7.71484Q1.53906 7.41602 1.3125 7.07422Q1.09375 6.74023 0.939453 6.36328Q0.783203 5.98047 0.705078 5.58398Q0.626953 5.1875 0.626953 4.77539Q0.626953 4.36328 0.705078 3.96484Q0.783203 3.56836 0.939453 3.1875Q1.0957 2.80469 1.31836 2.46875Q1.54297 2.13086 1.83203 1.83594Q2.02539 1.63867 2.24219 1.4707Q2.02539 1.63867 1.82812 1.83789Q1.54102 2.13086 1.32031 2.4668Q1.0957 2.80664 0.9375 3.19141Q0.78125 3.57422 0.703125 3.9707Q0.625 4.36914 0.625 4.78125Q0.625 5.19336 0.703125 5.5918Q0.78125 5.98828 0.9375 6.37109Q1.09375 6.75391 1.31641 7.0918Q1.53906 7.42969 1.82812 7.72461L8.75195 14.7363ZM7.25 1.51172Q7.4375 1.66211 7.60938 1.83789L8.75195 3.00586L9.88672 1.84961Q10.1504 1.57812 10.4531 1.36328Q10.8047 1.11523 11.209 0.943359Q11.5859 0.783203 11.9805 0.703125Q12.1094 0.677734 12.2402 0.660156Q12.1094 0.677734 11.9785 0.705078Q11.5879 0.783203 11.2148 0.939453Q10.8379 1.09766 10.5078 1.32227Q10.1777 1.54688 9.89258 1.83789L8.75195 2.98828L7.61328 1.83984Q7.43945 1.66211 7.25 1.51172ZM9.18945 3.45312L8.75195 3.90039L8.31445 3.45312L7.16406 2.27539C6.8457 1.95117 6.46484 1.69336 6.04492 1.51562C5.625 1.33984 5.17578 1.25 4.7207 1.25C4.26562 1.25 3.81445 1.33984 3.39453 1.51562C2.97656 1.69336 2.5957 1.95117 2.27734 2.27539C1.62109 2.94141 1.25195 3.83984 1.25195 4.77539C1.25195 5.71094 1.62109 6.60938 2.27734 7.27539L8.3125 13.3867L8.75195 13.832L9.19141 13.3867L15.2266 7.27539C15.8828 6.60938 16.252 5.71094 16.252 4.77539C16.252 3.83984 15.8828 2.94141 15.2266 2.27539C14.9082 1.94922 14.5273 1.69141 14.1074 1.51562C13.6895 1.33984 13.2383 1.25 12.7832 1.25C12.3262 1.25 11.873 1.3418 11.4531 1.51953C11.0312 1.69727 10.6504 1.95898 10.332 2.28711L9.18945 3.45312Z" fill="currentColor" fill-opacity="1.000000" fill-rule="evenodd"/>
</svg>
