<svg width="22.000000" height="22.000000" viewBox="0 0 22 22" fill="none" xmlns="http://www.w3.org/2000/svg" xmlns:xlink="http://www.w3.org/1999/xlink">
	<desc>
			Created with Pixso.
	</desc>
	<defs/>
	<path id="Vector" d="M11 0C8.01562 0 7.63867 0.0136719 6.4668 0.0664062C5.29297 0.121094 4.49414 0.304688 3.79492 0.578125C3.06055 0.853516 2.39648 1.28711 1.8457 1.8457C1.28711 2.39648 0.853516 3.06055 0.578125 3.79492C0.304688 4.49414 0.119141 5.29297 0.0664062 6.46289C0.0136719 7.63867 0 8.01172 0 11.002C0 13.9883 0.0136719 14.3613 0.0664062 15.5352C0.121094 16.707 0.304688 17.5059 0.578125 18.2051C0.859375 18.9277 1.23438 19.541 1.8457 20.1543C2.45703 20.7656 3.07031 21.1426 3.79297 21.4219C4.49414 21.6953 5.29297 21.8809 6.46484 21.9336C7.63867 21.9863 8.01172 22 11 22C13.9883 22 14.3613 21.9863 15.5352 21.9336C16.7051 21.8789 17.5059 21.6953 18.207 21.4219C18.9395 21.1465 19.6055 20.7129 20.1543 20.1543C20.7656 19.541 21.1406 18.9277 21.4219 18.2051C21.6934 17.5059 21.8789 16.707 21.9336 15.5352C21.9863 14.3613 22 13.9883 22 11C22 8.01172 21.9863 7.63867 21.9336 6.46484C21.8789 5.29297 21.6934 4.49414 21.4219 3.79492C21.1465 3.06055 20.7129 2.39648 20.1543 1.8457C19.6035 1.28711 18.9395 0.853516 18.2051 0.578125C17.5039 0.304688 16.7031 0.119141 15.5332 0.0664062C14.3594 0.0136719 13.9863 0 10.998 0L11.002 0L11 0ZM10.0137 1.98242L11.002 1.98242C13.9375 1.98242 14.2871 1.99219 15.4453 2.04688C16.5176 2.09375 17.1016 2.27344 17.4883 2.42383C18.002 2.62305 18.3691 2.86328 18.7539 3.24805C19.1387 3.63281 19.377 3.99805 19.5762 4.51367C19.7266 4.89844 19.9062 5.48242 19.9531 6.55469C20.0078 7.71289 20.0195 8.0625 20.0195 10.998C20.0195 13.9336 20.0078 14.2812 19.9531 15.4414C19.9062 16.5137 19.7266 17.0957 19.5762 17.4824C19.4004 17.9609 19.1172 18.3926 18.752 18.7461C18.3672 19.1309 18.002 19.3691 17.4863 19.5684C17.1016 19.7207 16.5195 19.8984 15.4453 19.9492C14.2871 20 13.9375 20.0137 11.002 20.0137C8.06445 20.0137 7.71484 20 6.55664 19.9492C5.48438 19.8984 4.90234 19.7207 4.51367 19.5684C4.03711 19.3926 3.60352 19.1113 3.25 18.7461C2.88281 18.3926 2.60156 17.959 2.42383 17.4824C2.27344 17.0957 2.09375 16.5117 2.04688 15.4395C1.99414 14.2812 1.98242 13.9336 1.98242 10.9941C1.98242 8.05664 1.99414 7.71094 2.04688 6.55273C2.0957 5.47852 2.27344 4.89648 2.42578 4.50781C2.625 3.99609 2.86328 3.62891 3.25 3.24414C3.63477 2.85938 4 2.62109 4.51367 2.42188C4.90234 2.26953 5.48438 2.0918 6.55664 2.04102C7.57031 1.99609 7.96484 1.98047 10.0137 1.98047L10.0137 1.98242ZM16.873 3.80859C16.6992 3.80859 16.5273 3.84375 16.3672 3.91016C16.207 3.97461 16.0625 4.07227 15.9395 4.19531C15.8164 4.31836 15.7188 4.46289 15.6523 4.62305C15.5859 4.7832 15.5527 4.95508 15.5527 5.12891C15.5527 5.30273 15.5859 5.47461 15.6523 5.63477C15.7188 5.79492 15.8164 5.93945 15.9395 6.0625C16.0625 6.18555 16.207 6.28125 16.3672 6.34766C16.5273 6.41406 16.6992 6.44922 16.873 6.44922C17.2227 6.44922 17.5586 6.31055 17.8066 6.0625C18.0527 5.81445 18.1934 5.47852 18.1934 5.12891C18.1934 4.7793 18.0527 4.44336 17.8066 4.19531C17.5586 3.94727 17.2227 3.80859 16.873 3.80859ZM11.002 5.35156C10.252 5.33984 9.50781 5.47656 8.8125 5.75586C8.11719 6.03516 7.48438 6.44922 6.94922 6.97461C6.41602 7.5 5.99219 8.12695 5.70117 8.81836C5.41211 9.50977 5.26367 10.252 5.26367 11C5.26367 11.75 5.41211 12.4922 5.70117 13.1836C5.99219 13.875 6.41602 14.502 6.94922 15.0273C7.48438 15.5527 8.11719 15.9668 8.8125 16.2461C9.50781 16.5234 10.252 16.6621 11.002 16.6504C12.4844 16.627 13.8984 16.0215 14.9395 14.9648C15.9805 13.9082 16.5625 12.4844 16.5625 11C16.5625 9.51758 15.9805 8.09375 14.9395 7.03711C13.8984 5.98047 12.4844 5.375 11.002 5.35156ZM11.002 7.33203C11.9746 7.33203 12.9062 7.71875 13.5938 8.40625C14.2812 9.09375 14.668 10.0273 14.668 11C14.668 11.9727 14.2812 12.9062 13.5938 13.5938C12.9062 14.2812 11.9746 14.668 11.002 14.668C10.0293 14.668 9.0957 14.2812 8.4082 13.5938C7.7207 12.9062 7.33398 11.9727 7.33398 11C7.33398 10.0273 7.7207 9.09375 8.4082 8.40625C9.0957 7.71875 10.0293 7.33203 11.002 7.33203Z" fill="#FF6551" fill-opacity="1.000000" fill-rule="nonzero"/>
</svg>
