<svg width="22.000000" height="18.000000" viewBox="0 0 22 18" fill="none" xmlns="http://www.w3.org/2000/svg" xmlns:xlink="http://www.w3.org/1999/xlink">
	<desc>
			Created with Pixso.
	</desc>
	<defs/>
	<path id="Vector" d="M6.91016 18C15.2129 18 19.7539 11.0723 19.7539 5.07617C19.7539 4.88281 19.7539 4.68555 19.7461 4.49219C20.6309 3.84766 21.3945 3.05078 22 2.13672C21.1738 2.50195 20.2988 2.74414 19.4023 2.85352C20.3457 2.28516 21.0527 1.39062 21.3926 0.337891C20.5059 0.867188 19.5352 1.23828 18.5234 1.43555C17.8418 0.705078 16.9414 0.222656 15.9609 0.0605469C14.9805 -0.101562 13.9746 0.0664062 13.0977 0.537109C12.2207 1.00977 11.5234 1.75977 11.1133 2.67188C10.7031 3.58398 10.6035 4.60547 10.8281 5.58008C9.0332 5.49023 7.27734 5.02148 5.67383 4.20312C4.07227 3.38477 2.6582 2.23633 1.52344 0.833984C0.947266 1.83398 0.771484 3.01758 1.03125 4.14453C1.29297 5.27148 1.96875 6.25781 2.92383 6.90039C2.20703 6.875 1.50781 6.68164 0.880859 6.33594L0.880859 6.39844C0.880859 7.44727 1.24219 8.46289 1.90234 9.27344C2.56055 10.0859 3.47852 10.6445 4.49805 10.8535C4.11133 10.9609 3.71094 11.0137 3.31055 11.0117C3.02539 11.0137 2.74414 10.9863 2.46484 10.9336C2.75391 11.8359 3.31641 12.625 4.07227 13.1914C4.82812 13.7559 5.74023 14.0684 6.68164 14.0859C5.08203 15.3516 3.10742 16.0371 1.07227 16.0332C0.714844 16.0352 0.355469 16.0156 0 15.9707C2.06445 17.2969 4.46289 18 6.91016 18Z" fill="#FF6551" fill-opacity="1.000000" fill-rule="nonzero"/>
</svg>
