<svg width="23.000000" height="23.000000" viewBox="0 0 23 23" fill="none" xmlns="http://www.w3.org/2000/svg" xmlns:xlink="http://www.w3.org/1999/xlink">
	<desc>
			Created with Pixso.
	</desc>
	<defs/>
	<path id="Vector" d="M23 11.5703C23 5.17969 17.8516 0 11.502 0C5.14844 0.00195312 0 5.17969 0 11.5723C0 17.3457 4.20508 22.1328 9.70117 23L9.70117 14.916L6.7832 14.916L6.7832 11.5723L9.70508 11.5723L9.70508 9.02148C9.70508 6.12109 11.4219 4.51953 14.0488 4.51953C15.3066 4.51953 16.623 4.74609 16.623 4.74609L16.623 7.5918L15.1719 7.5918C13.7441 7.5918 13.2988 8.48438 13.2988 9.40039L13.2988 11.5703L16.4883 11.5703L15.9785 14.9141L13.2988 14.9141L13.2988 22.998C18.7949 22.1309 23 17.3438 23 11.5703Z" fill="#FF6551" fill-opacity="1.000000" fill-rule="evenodd"/>
</svg>
