<svg width="9.000000" height="16.000000" viewBox="0 0 9 16" fill="none" xmlns="http://www.w3.org/2000/svg" xmlns:xlink="http://www.w3.org/1999/xlink">
	<desc>
			Created with Pixso.
	</desc>
	<defs>
		<clipPath id="clip2685_5198">
			<rect id="icon arrow-next" width="9.000000" height="16.000000" fill="white" fill-opacity="0"/>
		</clipPath>
	</defs>
	<g clip-path="url(#clip2685_5198)">
		<path id="@none" d="M0.181641 0.181641C0.238281 0.123047 0.306641 0.078125 0.380859 0.046875C0.455078 0.015625 0.535156 0 0.617188 0C0.697266 0 0.777344 0.015625 0.851562 0.046875C0.927734 0.078125 0.994141 0.123047 1.05273 0.181641L8.43555 7.56445C8.49219 7.62109 8.53906 7.68945 8.57031 7.76367C8.60156 7.83984 8.61719 7.91992 8.61719 8C8.61719 8.08203 8.60156 8.16211 8.57031 8.23633C8.53906 8.31055 8.49219 8.37891 8.43555 8.43555L1.05273 15.8203C0.935547 15.9355 0.779297 16 0.617188 16C0.453125 16 0.296875 15.9355 0.181641 15.8203C0.0644531 15.7031 0 15.5469 0 15.3848C0 15.2207 0.0644531 15.0645 0.181641 14.9492L7.13086 8L0.181641 1.05273C0.123047 0.994141 0.078125 0.927734 0.046875 0.851562C0.015625 0.777344 0 0.697266 0 0.617188C0 0.535156 0.015625 0.455078 0.046875 0.380859C0.078125 0.306641 0.123047 0.238281 0.181641 0.181641Z" fill="#FF6551" fill-opacity="1.000000" fill-rule="evenodd"/>
	</g>
</svg>
