<svg width="137.718750" height="18.000000" viewBox="0 0 137.719 18" fill="none" xmlns="http://www.w3.org/2000/svg" xmlns:xlink="http://www.w3.org/1999/xlink">
	<desc>
			Created with Pixso.
	</desc>
	<defs/>
	<path id="Brandname" d="M56.9945 16.0551C58.1945 17.3511 59.5546 17.9991 61.0745 17.9991C62.6105 17.9991 63.8826 17.3671 64.8905 16.1031L64.8905 17.8071L68.4905 17.8071L68.4905 -0.000875473L64.8905 -0.000875473L64.8905 6.33512C63.8985 5.23112 62.6185 4.67912 61.0505 4.67912Q60.1713 4.67912 59.3759 4.93736Q58.0436 5.36994 56.9465 6.52712Q56.4679 7.02549 56.12 7.60269Q55.1945 9.13802 55.1945 11.2311C55.1945 13.1511 55.7945 14.7591 56.9945 16.0551ZM-0.000452995 17.8071L7.34355 17.8071Q10.7995 17.8071 12.1915 16.2471Q12.8576 15.5012 13.154 14.6295Q13.3915 13.9307 13.3915 13.1511Q13.3915 12.004 12.9007 11.1338Q12.7137 10.8024 12.4555 10.5111C11.8475 9.79112 11.0235 9.31913 9.98355 9.09513C10.2715 8.96712 10.4715 8.87912 10.5835 8.83113C10.6955 8.76712 10.8955 8.62313 11.1835 8.39912Q11.4976 8.16212 11.7341 7.86367Q12.4555 6.95326 12.4555 5.47112Q12.4555 4.82511 12.2788 4.23175Q12.009 3.32611 11.3275 2.54312C10.9115 2.07912 10.2875 1.71112 9.45555 1.43913C8.63955 1.16712 7.66355 1.03112 6.52755 1.03112L-0.000452995 1.03112L-0.000452995 17.8071ZM5.51955 7.82312L3.74355 7.82312L3.74355 4.19912L5.54355 4.19912Q7.19955 4.19912 7.89555 4.55912C8.35955 4.79913 8.59155 5.29513 8.59155 6.04712Q8.59155 6.84062 8.1948 7.23738Q8.03955 7.39262 7.82355 7.48713C7.32755 7.71113 6.55955 7.82312 5.51955 7.82312ZM20.6784 9.21513C21.2064 8.44712 22.0064 8.06312 23.0784 8.06312L23.7744 8.06312L23.7504 4.67912C23.0304 4.69512 22.3184 4.88713 21.6144 5.25513Q20.5824 5.80713 19.8864 6.59912L19.8864 4.89512L16.2864 4.89512L16.2864 17.8071L19.8864 17.8071L19.8864 12.2151Q19.8864 10.3431 20.6784 9.21513ZM33.7204 17.8071L37.1044 17.8071L37.1044 9.57512C37.1044 7.87912 36.6084 6.63912 35.6164 5.85512C34.6244 5.07112 33.3444 4.67912 31.7764 4.67912Q29.8263 4.67912 28.1333 5.33876Q26.9925 5.78321 25.9684 6.52712L27.5764 8.85512Q28.2964 8.30312 29.3284 7.94312C30.0324 7.68712 30.6964 7.55912 31.3204 7.55912C32.7764 7.55912 33.5044 8.24712 33.5044 9.62313L33.5044 9.69513L30.8164 9.69513Q28.3204 9.69513 26.8804 10.6791C25.9204 11.3351 25.4404 12.3271 25.4404 13.6551Q25.4404 14.832 25.9382 15.7342Q26.2728 16.3407 26.8324 16.8231Q27.2038 17.1368 27.6212 17.3669Q28.7686 17.9991 30.2644 17.9991Q31.0775 17.9991 31.7862 17.7273Q32.8768 17.309 33.7204 16.2471L33.7204 17.8071ZM44.0864 17.8071L44.0864 10.6071Q44.0864 9.16667 44.8052 8.40147Q44.8409 8.36346 44.8784 8.32712C45.4224 7.79912 46.0544 7.53512 46.7744 7.53512C48.2304 7.53512 48.9584 8.52712 48.9584 10.5111L48.9584 17.8071L52.5584 17.8071L52.5584 9.95913Q52.5584 8.0252 51.6546 6.71462Q51.4367 6.39877 51.1664 6.11912C50.2544 5.15912 49.1184 4.67912 47.7584 4.67912Q47.1747 4.67912 46.6244 4.81471Q45.2514 5.15297 44.0864 6.33512L44.0864 4.89512L40.4864 4.89512L40.4864 17.8071L44.0864 17.8071ZM75.5989 17.8071L75.5989 10.6071Q75.5989 9.16667 76.3177 8.40147Q76.3534 8.36346 76.3909 8.32712C76.9349 7.79912 77.5669 7.53512 78.2869 7.53512C79.7429 7.53512 80.4709 8.52712 80.4709 10.5111L80.4709 17.8071L84.0709 17.8071L84.0709 9.95913C84.0709 8.35913 83.6069 7.07912 82.6789 6.11912Q82.0536 5.46087 81.2878 5.10352Q80.3784 4.67912 79.2709 4.67912Q78.6872 4.67912 78.1369 4.81471Q76.7639 5.15297 75.5989 6.33512L75.5989 4.89512L71.9989 4.89512L71.9989 17.8071L75.5989 17.8071ZM95.011 17.8071L98.395 17.8071L98.395 9.57512C98.395 7.87912 97.899 6.63912 96.907 5.85512Q96.839 5.80137 96.7692 5.75008Q95.3115 4.67912 93.067 4.67912C90.891 4.67912 88.955 5.29512 87.259 6.52712L88.867 8.85512C89.347 8.48712 89.931 8.18312 90.619 7.94312C91.323 7.68712 91.987 7.55912 92.611 7.55912C94.067 7.55912 94.795 8.24712 94.795 9.62313L94.795 9.69513L92.107 9.69513C90.443 9.69513 89.131 10.0231 88.171 10.6791C87.211 11.3351 86.731 12.3271 86.731 13.6551C86.731 14.9671 87.195 16.0231 88.123 16.8231C89.051 17.6071 90.195 17.9991 91.555 17.9991Q92.3681 17.9991 93.0769 17.7273Q94.1674 17.309 95.011 16.2471L95.011 17.8071ZM113.633 17.8071L113.633 10.8471C113.633 9.83912 113.897 9.07912 114.425 8.56712C114.953 8.03913 115.577 7.77512 116.297 7.77512C117.753 7.77512 118.481 8.76713 118.481 10.7511L118.481 17.8071L122.105 17.8071L122.105 9.95913C122.105 8.24712 121.641 6.94312 120.713 6.04712Q120.381 5.72038 119.997 5.47168Q118.776 4.67912 117.041 4.67912C116.193 4.67912 115.345 4.89512 114.497 5.32712C113.665 5.75912 113.001 6.36712 112.505 7.15112C112.169 6.46313 111.665 5.87912 110.993 5.39912Q110.511 5.04634 109.971 4.86641Q109.409 4.67912 108.785 4.67912C107.505 4.67912 106.369 5.23912 105.377 6.35912L105.377 4.89512L101.777 4.89512L101.777 17.8071L105.377 17.8071L105.377 10.8471Q105.377 9.40667 106.096 8.64147Q106.132 8.60347 106.169 8.56712C106.713 8.03913 107.329 7.77512 108.017 7.77512C108.721 7.77512 109.225 8.01512 109.529 8.49512C109.849 8.97513 110.009 9.72713 110.009 10.7511L110.009 17.8071L113.633 17.8071ZM131.527 17.9991C133.495 17.9991 135.207 17.3111 136.663 15.9351L134.647 13.7511C133.831 14.5991 132.791 15.0231 131.527 15.0231C130.743 15.0231 130.039 14.7991 129.415 14.3511C128.791 13.9031 128.423 13.3271 128.311 12.6231L137.719 12.6231L137.719 10.7031C137.719 8.83113 137.095 7.35913 135.847 6.28712C134.615 5.21512 133.111 4.67912 131.335 4.67912C129.559 4.67912 128.015 5.27912 126.703 6.47912C125.407 7.67912 124.759 9.29512 124.759 11.3271C124.759 13.3591 125.399 14.9831 126.679 16.1991C127.959 17.3991 129.575 17.9991 131.527 17.9991ZM133.207 8.27913C133.703 8.69512 133.991 9.28712 134.071 10.0551L128.407 10.0551C128.503 9.31912 128.847 8.73512 129.439 8.30312C130.031 7.87113 130.679 7.65512 131.383 7.65512Q132.163 7.65512 132.768 7.98083Q133 8.10595 133.207 8.27913ZM59.7545 13.9431C59.1305 13.2711 58.8186 12.4151 58.8186 11.3751C58.8186 10.3351 59.1225 9.46313 59.7305 8.75912Q60.307 8.09162 61.0274 7.84605Q61.4466 7.70312 61.9146 7.70312C62.7626 7.70312 63.4745 8.05512 64.0506 8.75912C64.6425 9.44712 64.9386 10.3191 64.9386 11.3751C64.9386 12.4151 64.6425 13.2711 64.0506 13.9431C63.4745 14.5991 62.7705 14.9271 61.9386 14.9271C61.1065 14.9271 60.3785 14.5991 59.7545 13.9431ZM6.31155 14.6391L3.74355 14.6391L3.74355 10.7751L5.95155 10.7751C7.19955 10.7751 8.10355 10.9031 8.66355 11.1591C9.23955 11.3991 9.52755 11.9111 9.52755 12.6951Q9.52755 13.5048 9.12441 13.947Q8.954 14.1339 8.71155 14.2551Q7.91955 14.6391 6.31155 14.6391ZM33.4804 12.2631L33.4804 12.8871C33.4804 13.5431 33.2324 14.0711 32.7364 14.4711C32.2564 14.8551 31.6964 15.0471 31.0564 15.0471C30.4164 15.0471 29.9204 14.9271 29.5684 14.6871C29.2324 14.4311 29.0644 14.0711 29.0644 13.6071C29.0644 12.7111 29.7844 12.2631 31.2244 12.2631L33.4804 12.2631ZM94.771 12.2631L94.771 12.8871C94.771 13.5431 94.523 14.0711 94.027 14.4711C93.547 14.8551 92.987 15.0471 92.347 15.0471C91.707 15.0471 91.211 14.9271 90.859 14.6871C90.523 14.4311 90.355 14.0711 90.355 13.6071Q90.355 13.232 90.5233 12.9616Q90.9579 12.2631 92.515 12.2631L94.771 12.2631Z" fill="#FFFFFF" fill-opacity="1.000000" fill-rule="evenodd"/>
</svg>
