<svg width="67.500000" height="67.500000" viewBox="0 0 67.5 67.5" fill="none" xmlns="http://www.w3.org/2000/svg" xmlns:xlink="http://www.w3.org/1999/xlink">
	<desc>
			Created with Pixso.
	</desc>
	<defs>
		<clipPath id="clip2645_1042">
			<rect id="Frame" width="63.000000" height="40.500000" transform="translate(4.500000 11.250000)" fill="white" fill-opacity="0"/>
		</clipPath>
		<clipPath id="clip2645_1044">
			<rect id="Frame" width="63.000000" height="6.750000" transform="translate(4.500000 51.750000)" fill="white" fill-opacity="0"/>
		</clipPath>
		<clipPath id="clip2645_1046">
			<rect id="Frame" width="58.500000" height="40.500000" transform="translate(4.500000 11.250000)" fill="white" fill-opacity="0"/>
		</clipPath>
		<clipPath id="clip2645_1048">
			<rect id="Frame" width="58.500000" height="6.750000" transform="translate(4.500000 51.750000)" fill="white" fill-opacity="0"/>
		</clipPath>
		<clipPath id="clip2645_1050">
			<rect id="Frame" width="49.500000" height="31.500000" transform="translate(9.000000 15.750000)" fill="white" fill-opacity="0"/>
		</clipPath>
		<clipPath id="clip2645_1052">
			<rect id="Frame" width="29.250000" height="4.500000" transform="translate(13.500000 20.250000)" fill="white" fill-opacity="0"/>
		</clipPath>
		<clipPath id="clip2645_1054">
			<rect id="Frame" width="29.250000" height="4.500000" transform="translate(13.500000 29.250000)" fill="white" fill-opacity="0"/>
		</clipPath>
		<clipPath id="clip2645_1056">
			<rect id="Frame" width="29.250000" height="4.500000" transform="translate(13.500000 38.250000)" fill="white" fill-opacity="0"/>
		</clipPath>
		<clipPath id="clip2645_1058">
			<rect id="Frame" width="4.500000" height="4.500000" transform="translate(39.937500 58.500000)" fill="white" fill-opacity="0"/>
		</clipPath>
		<clipPath id="clip2645_1060">
			<rect id="Frame" width="10.687500" height="4.500000" transform="translate(29.250000 58.500000)" fill="white" fill-opacity="0"/>
		</clipPath>
		<clipPath id="clip2645_1062">
			<rect id="Frame" width="37.125000" height="4.500000" transform="translate(16.312500 63.000000)" fill="white" fill-opacity="0"/>
		</clipPath>
		<clipPath id="clip2645_1064">
			<rect id="Frame" width="13.500000" height="4.500000" transform="translate(39.937500 63.000000)" fill="white" fill-opacity="0"/>
		</clipPath>
		<clipPath id="clip2645_1066">
			<rect id="Frame" width="30.375000" height="27.000000" fill="white" fill-opacity="0"/>
		</clipPath>
		<clipPath id="clip2645_1068">
			<rect id="Frame" width="27.000000" height="27.000000" fill="white" fill-opacity="0"/>
		</clipPath>
		<clipPath id="clip2645_1070">
			<rect id="Frame" width="22.500000" height="22.500000" transform="translate(2.250000 2.250000)" fill="white" fill-opacity="0"/>
		</clipPath>
		<clipPath id="clip2645_1072">
			<rect id="Frame" width="1.125000" height="10.125000" transform="translate(12.937500 3.937500)" fill="white" fill-opacity="0"/>
		</clipPath>
		<clipPath id="clip2645_1074">
			<rect id="Frame" width="5.896690" height="5.897537" transform="translate(8.164062 12.937500)" fill="white" fill-opacity="0"/>
		</clipPath>
		<clipPath id="clip2645_1076">
			<rect id="Frame" width="4.500000" height="4.500000" transform="translate(11.250000 11.250000)" fill="white" fill-opacity="0"/>
		</clipPath>
		<clipPath id="clip2645_1078">
			<rect id="Frame" width="2.250000" height="2.250000" transform="translate(12.375000 12.375000)" fill="white" fill-opacity="0"/>
		</clipPath>
		<clipPath id="clip2645_1080">
			<rect id="Frame" width="2.250000" height="1.125000" transform="translate(3.937500 12.937500)" fill="white" fill-opacity="0"/>
		</clipPath>
		<clipPath id="clip2645_1082">
			<rect id="Frame" width="1.125000" height="2.250000" transform="translate(12.937500 20.812500)" fill="white" fill-opacity="0"/>
		</clipPath>
		<clipPath id="clip2645_1084">
			<rect id="Frame" width="2.250000" height="1.125000" transform="translate(20.812500 12.937500)" fill="white" fill-opacity="0"/>
		</clipPath>
		<clipPath id="clip2645_1086">
			<rect id="Frame" width="4.500000" height="4.500000" transform="translate(48.375000 38.250000)" fill="white" fill-opacity="0"/>
		</clipPath>
		<clipPath id="clip2645_1088">
			<rect id="Frame" width="7.448631" height="5.761122" transform="translate(47.744141 19.056641)" fill="white" fill-opacity="0"/>
		</clipPath>
		<clipPath id="clip2645_1090">
			<rect id="Frame" width="7.448631" height="5.761133" transform="translate(47.744141 28.056641)" fill="white" fill-opacity="0"/>
		</clipPath>
		<clipPath id="clip2645_1041">
			<rect id="Frame" width="67.500000" height="67.500000" fill="white" fill-opacity="0"/>
		</clipPath>
	</defs>
	<g clip-path="url(#clip2645_1041)">
		<g clip-path="url(#clip2645_1042)">
			<path id="Vector" d="M67.5 51.75L4.5 51.75L4.5 15.75C4.5 13.2656 6.51562 11.25 9 11.25L63 11.25C65.4844 11.25 67.5 13.2656 67.5 15.75L67.5 51.75Z" fill="#353744" fill-opacity="1.000000" fill-rule="nonzero"/>
		</g>
		<g clip-path="url(#clip2645_1044)">
			<path id="Vector" d="M67.5 51.75L4.5 51.75L4.5 54C4.5 56.4844 6.51562 58.5 9 58.5L63 58.5C65.4844 58.5 67.5 56.4844 67.5 54L67.5 51.75Z" fill="#808080" fill-opacity="1.000000" fill-rule="nonzero"/>
		</g>
		<g clip-path="url(#clip2645_1046)">
			<path id="Vector" d="M63 51.75L4.5 51.75L4.5 15.75C4.5 13.2656 6.51562 11.25 9 11.25L58.5 11.25C60.9844 11.25 63 13.2656 63 15.75L63 51.75Z" fill="#55525B" fill-opacity="1.000000" fill-rule="nonzero"/>
		</g>
		<g clip-path="url(#clip2645_1048)">
			<path id="Vector" d="M63 51.75L4.5 51.75L4.5 54C4.5 56.4844 6.51562 58.5 9 58.5L58.5 58.5C60.9844 58.5 63 56.4844 63 54L63 51.75Z" fill="#DBDEE3" fill-opacity="1.000000" fill-rule="nonzero"/>
		</g>
		<g clip-path="url(#clip2645_1050)">
			<path id="Vector" d="M56.8125 15.75L10.6875 15.75C9.75586 15.75 9 16.5059 9 17.4375L9 45.5625C9 46.4941 9.75586 47.25 10.6875 47.25L56.8125 47.25C57.7441 47.25 58.5 46.4941 58.5 45.5625L58.5 17.4375C58.5 16.5059 57.7441 15.75 56.8125 15.75Z" fill="#FBBE18" fill-opacity="1.000000" fill-rule="nonzero"/>
		</g>
		<g clip-path="url(#clip2645_1052)">
			<path id="Vector" d="M15.75 24.75L40.5 24.75C41.7422 24.75 42.75 23.7422 42.75 22.5C42.75 21.2578 41.7422 20.25 40.5 20.25L15.75 20.25C14.5078 20.25 13.5 21.2578 13.5 22.5C13.5 23.7422 14.5078 24.75 15.75 24.75Z" fill="#F68820" fill-opacity="1.000000" fill-rule="nonzero"/>
		</g>
		<g clip-path="url(#clip2645_1054)">
			<path id="Vector" d="M15.75 33.75L40.5 33.75C41.7422 33.75 42.75 32.7422 42.75 31.5C42.75 30.2578 41.7422 29.25 40.5 29.25L15.75 29.25C14.5078 29.25 13.5 30.2578 13.5 31.5C13.5 32.7422 14.5078 33.75 15.75 33.75Z" fill="#F68820" fill-opacity="1.000000" fill-rule="nonzero"/>
		</g>
		<g clip-path="url(#clip2645_1056)">
			<path id="Vector" d="M15.75 42.75L40.5 42.75C41.7422 42.75 42.75 41.7422 42.75 40.5C42.75 39.2578 41.7422 38.25 40.5 38.25L15.75 38.25C14.5078 38.25 13.5 39.2578 13.5 40.5C13.5 41.7422 14.5078 42.75 15.75 42.75Z" fill="#F68820" fill-opacity="1.000000" fill-rule="nonzero"/>
		</g>
		<g clip-path="url(#clip2645_1058)">
			<path id="Vector" d="M44.4375 63L39.9375 63L39.9375 58.5L44.4375 58.5L44.4375 63Z" fill="#808080" fill-opacity="1.000000" fill-rule="nonzero"/>
		</g>
		<g clip-path="url(#clip2645_1060)">
			<path id="Vector" d="M29.25 58.5L39.9375 58.5L39.9375 63L29.25 63L29.25 58.5Z" fill="#B3B4B6" fill-opacity="1.000000" fill-rule="nonzero"/>
		</g>
		<g clip-path="url(#clip2645_1062)">
			<path id="Vector" d="M48.9375 63L20.8125 63C18.3281 63 16.3125 65.0156 16.3125 67.5L53.4375 67.5C53.4375 65.0156 51.4219 63 48.9375 63Z" fill="#DBDEE3" fill-opacity="1.000000" fill-rule="nonzero"/>
		</g>
		<g clip-path="url(#clip2645_1064)">
			<path id="Vector" d="M48.9375 63L44.4375 63C41.9531 63 39.9375 65.0156 39.9375 67.5L53.4375 67.5C53.4375 65.0156 51.4219 63 48.9375 63Z" fill="#808080" fill-opacity="1.000000" fill-rule="nonzero"/>
		</g>
		<g clip-path="url(#clip2645_1066)">
			<path id="Vector" d="M16.875 0L13.5 0C6.04492 0 0 6.04492 0 13.5C0 20.9551 6.04492 27 13.5 27L16.875 27C24.3301 27 30.375 20.9551 30.375 13.5C30.375 6.04492 24.3301 0 16.875 0Z" fill="#5C76B2" fill-opacity="1.000000" fill-rule="nonzero"/>
		</g>
		<g clip-path="url(#clip2645_1068)">
			<path id="Vector" d="M27 13.5C27 20.9551 20.9551 27 13.5 27C6.04492 27 0 20.9551 0 13.5C0 6.04492 6.04492 0 13.5 0C20.9551 0 27 6.04492 27 13.5Z" fill="#6FA4D8" fill-opacity="1.000000" fill-rule="evenodd"/>
		</g>
		<g clip-path="url(#clip2645_1070)">
			<path id="Vector" d="M24.75 13.5C24.75 19.7129 19.7129 24.75 13.5 24.75C7.28711 24.75 2.25 19.7129 2.25 13.5C2.25 7.28711 7.28711 2.25 13.5 2.25C19.7129 2.25 24.75 7.28711 24.75 13.5Z" fill="#55525B" fill-opacity="1.000000" fill-rule="evenodd"/>
		</g>
		<g clip-path="url(#clip2645_1072)">
			<path id="Vector" d="M13.5 14.0625C13.1895 14.0625 12.9375 13.8105 12.9375 13.5L12.9375 4.5C12.9375 4.18945 13.1895 3.9375 13.5 3.9375C13.8105 3.9375 14.0625 4.18945 14.0625 4.5L14.0625 13.5C14.0625 13.8105 13.8105 14.0625 13.5 14.0625Z" fill="#6FA4D8" fill-opacity="1.000000" fill-rule="nonzero"/>
		</g>
		<g clip-path="url(#clip2645_1074)">
			<path id="Vector" d="M8.72656 18.8359C8.58203 18.8359 8.43945 18.7793 8.32812 18.6699C8.10938 18.4512 8.10938 18.0957 8.32812 17.875L13.1016 13.1016C13.3203 12.8828 13.6777 12.8828 13.8965 13.1016C14.1152 13.3223 14.1152 13.6777 13.8965 13.8965L9.12305 18.6699C9.01562 18.7793 8.87109 18.8359 8.72656 18.8359Z" fill="#6FA4D8" fill-opacity="1.000000" fill-rule="nonzero"/>
		</g>
		<g clip-path="url(#clip2645_1076)">
			<path id="Vector" d="M15.75 13.5C15.75 14.7422 14.7422 15.75 13.5 15.75C12.2578 15.75 11.25 14.7422 11.25 13.5C11.25 12.2578 12.2578 11.25 13.5 11.25C14.7422 11.25 15.75 12.2578 15.75 13.5Z" fill="#F68820" fill-opacity="1.000000" fill-rule="evenodd"/>
		</g>
		<g clip-path="url(#clip2645_1078)">
			<path id="Vector" d="M14.625 13.5C14.625 14.1211 14.1211 14.625 13.5 14.625C12.8789 14.625 12.375 14.1211 12.375 13.5C12.375 12.8789 12.8789 12.375 13.5 12.375C14.1211 12.375 14.625 12.8789 14.625 13.5Z" fill="#DBDEE3" fill-opacity="1.000000" fill-rule="evenodd"/>
		</g>
		<g clip-path="url(#clip2645_1080)">
			<path id="Vector" d="M5.625 14.0625L4.5 14.0625C4.18945 14.0625 3.9375 13.8105 3.9375 13.5C3.9375 13.1895 4.18945 12.9375 4.5 12.9375L5.625 12.9375C5.93555 12.9375 6.1875 13.1895 6.1875 13.5C6.1875 13.8105 5.93555 14.0625 5.625 14.0625Z" fill="#F68820" fill-opacity="1.000000" fill-rule="nonzero"/>
		</g>
		<g clip-path="url(#clip2645_1082)">
			<path id="Vector" d="M13.5 23.0625C13.1895 23.0625 12.9375 22.8105 12.9375 22.5L12.9375 21.375C12.9375 21.0645 13.1895 20.8125 13.5 20.8125C13.8105 20.8125 14.0625 21.0645 14.0625 21.375L14.0625 22.5C14.0625 22.8105 13.8105 23.0625 13.5 23.0625Z" fill="#F68820" fill-opacity="1.000000" fill-rule="nonzero"/>
		</g>
		<g clip-path="url(#clip2645_1084)">
			<path id="Vector" d="M22.5 14.0625L21.375 14.0625C21.0645 14.0625 20.8125 13.8105 20.8125 13.5C20.8125 13.1895 21.0645 12.9375 21.375 12.9375L22.5 12.9375C22.8105 12.9375 23.0625 13.1895 23.0625 13.5C23.0625 13.8105 22.8105 14.0625 22.5 14.0625Z" fill="#F68820" fill-opacity="1.000000" fill-rule="nonzero"/>
		</g>
		<g clip-path="url(#clip2645_1086)">
			<path id="Vector" d="M50.625 42.75C49.3828 42.75 48.375 41.7422 48.375 40.5C48.375 39.2578 49.3828 38.25 50.625 38.25C51.8672 38.25 52.875 39.2578 52.875 40.5C52.875 41.7422 51.8672 42.75 50.625 42.75Z" fill="#F68820" fill-opacity="1.000000" fill-rule="nonzero"/>
		</g>
		<g clip-path="url(#clip2645_1088)">
			<path id="Vector" d="M49.7812 21.0938L50.625 21.9375L53.1562 19.4062C53.6211 18.9395 54.377 18.9395 54.8438 19.4062C55.3086 19.8711 55.3086 20.627 54.8438 21.0938L51.4688 24.4688C51.002 24.9336 50.2461 24.9336 49.7812 24.4688L48.0938 22.7812C47.627 22.3145 47.627 21.5586 48.0938 21.0938C48.5586 20.627 49.3145 20.627 49.7812 21.0938Z" fill="#5C76B2" fill-opacity="1.000000" fill-rule="nonzero"/>
		</g>
		<g clip-path="url(#clip2645_1090)">
			<path id="Vector" d="M49.7812 30.0938L50.625 30.9375L53.1562 28.4062C53.6211 27.9395 54.377 27.9395 54.8438 28.4062C55.3086 28.8711 55.3086 29.627 54.8438 30.0938L51.4688 33.4688C51.002 33.9336 50.2461 33.9336 49.7812 33.4688L48.0938 31.7812C47.627 31.3145 47.627 30.5586 48.0938 30.0938C48.5586 29.627 49.3145 29.627 49.7812 30.0938Z" fill="#5C76B2" fill-opacity="1.000000" fill-rule="nonzero"/>
		</g>
	</g>
</svg>
