<svg width="72.000000" height="72.000000" viewBox="0 0 72 72" fill="none" xmlns="http://www.w3.org/2000/svg" xmlns:xlink="http://www.w3.org/1999/xlink">
	<desc>
			Created with Pixso.
	</desc>
	<defs>
		<clipPath id="clip2645_1095">
			<rect id="Frame" width="9.000000" height="8.999992" transform="translate(36.035156 15.453125)" fill="white" fill-opacity="0"/>
		</clipPath>
		<clipPath id="clip2645_1098">
			<rect id="Frame" width="15.750523" height="18.000103" transform="translate(31.535156 35.703125)" fill="white" fill-opacity="0"/>
		</clipPath>
		<clipPath id="clip2645_1100">
			<rect id="Frame" width="15.749855" height="18.001221" transform="translate(38.285156 35.703125)" fill="white" fill-opacity="0"/>
		</clipPath>
		<clipPath id="clip2645_1103">
			<rect id="Frame" width="17.933716" height="14.284204" transform="translate(51.441406 12.609375)" fill="white" fill-opacity="0"/>
		</clipPath>
		<clipPath id="clip2645_1105">
			<rect id="Frame" width="13.500000" height="13.499992" transform="translate(51.443359 12.611328)" fill="white" fill-opacity="0"/>
		</clipPath>
		<clipPath id="clip2645_1107">
			<rect id="Frame" width="20.792557" height="11.666540" transform="translate(41.900391 12.195312)" fill="white" fill-opacity="0"/>
		</clipPath>
		<clipPath id="clip2645_1109">
			<rect id="Frame" width="20.723625" height="7.235477" transform="translate(41.900391 16.626953)" fill="white" fill-opacity="0"/>
		</clipPath>
		<clipPath id="clip2645_1111">
			<rect id="Frame" width="23.433792" height="16.133997" transform="translate(21.566406 6.462891)" fill="white" fill-opacity="0"/>
		</clipPath>
		<clipPath id="clip2645_1113">
			<rect id="Frame" width="23.330261" height="9.486034" transform="translate(21.566406 13.109375)" fill="white" fill-opacity="0"/>
		</clipPath>
		<clipPath id="clip2645_1115">
			<rect id="Frame" width="26.936043" height="23.286545" transform="translate(2.623047 0.294922)" fill="white" fill-opacity="0"/>
		</clipPath>
		<clipPath id="clip2645_1117">
			<rect id="Frame" width="22.500000" height="22.500000" transform="translate(2.626953 0.296875)" fill="white" fill-opacity="0"/>
		</clipPath>
		<clipPath id="clip2645_1119">
			<rect id="Frame" width="17.999992" height="18.000000" transform="translate(4.876953 2.546875)" fill="white" fill-opacity="0"/>
		</clipPath>
		<clipPath id="clip2645_1121">
			<rect id="Frame" width="8.856810" height="8.218735" transform="translate(5.871094 2.617188)" fill="white" fill-opacity="0"/>
		</clipPath>
		<clipPath id="clip2645_1102">
			<rect id="Frame" width="66.751434" height="26.599062" transform="translate(2.623047 0.294922)" fill="white" fill-opacity="0"/>
		</clipPath>
		<clipPath id="clip2645_1123">
			<rect id="Frame" width="9.000000" height="8.999992" transform="translate(40.535156 15.453125)" fill="white" fill-opacity="0"/>
		</clipPath>
		<clipPath id="clip2645_1125">
			<rect id="Frame" width="4.500000" height="4.499992" transform="translate(42.785156 17.703125)" fill="white" fill-opacity="0"/>
		</clipPath>
		<clipPath id="clip2645_1127">
			<rect id="Frame" width="9.000000" height="9.000000" transform="translate(18.035156 62.703125)" fill="white" fill-opacity="0"/>
		</clipPath>
		<clipPath id="clip2645_1129">
			<rect id="Frame" width="9.000000" height="9.000000" transform="translate(58.535156 62.703125)" fill="white" fill-opacity="0"/>
		</clipPath>
		<clipPath id="clip2645_1131">
			<rect id="Frame" width="9.000000" height="9.000000" transform="translate(38.285156 62.703125)" fill="white" fill-opacity="0"/>
		</clipPath>
		<clipPath id="clip2645_1133">
			<rect id="Frame" width="9.000000" height="18.000000" transform="translate(38.285156 35.703125)" fill="white" fill-opacity="0"/>
		</clipPath>
		<clipPath id="clip2645_1135">
			<rect id="Frame" width="9.000000" height="18.000000" transform="translate(38.285156 35.703125)" fill="white" fill-opacity="0"/>
		</clipPath>
		<clipPath id="clip2645_1094">
			<rect id="Frame" width="66.751434" height="71.408897" transform="translate(2.623047 0.294922)" fill="white" fill-opacity="0"/>
		</clipPath>
		<clipPath id="clip2645_1093">
			<rect id="005-telescope" width="72.000000" height="72.000000" fill="white" fill-opacity="0"/>
		</clipPath>
	</defs>
	<rect id="005-telescope" width="72.000000" height="72.000000" fill="#FFFFFF" fill-opacity="0"/>
	<g clip-path="url(#clip2645_1093)">
		<g clip-path="url(#clip2645_1094)">
			<g clip-path="url(#clip2645_1095)">
				<path id="Vector" d="M45.0352 19.9531C45.0352 22.4375 43.0195 24.4531 40.5352 24.4531C38.0508 24.4531 36.0352 22.4375 36.0352 19.9531C36.0352 17.4688 38.0508 15.4531 40.5352 15.4531C43.0195 15.4531 45.0352 17.4688 45.0352 19.9531Z" fill="#F68820" fill-opacity="1.000000" fill-rule="evenodd"/>
			</g>
			<path id="Vector" d="M64.8359 65.8535L45.0352 39.4531L45.0352 20.5156C45.0352 19.2734 44.0273 18.2656 42.7852 18.2656C41.543 18.2656 40.5352 19.2734 40.5352 20.5156L40.5352 39.4531L20.7344 65.8535C19.9902 66.8477 20.1914 68.2578 21.1855 69.0039C21.5898 69.3086 22.0645 69.4531 22.5332 69.4531C23.2188 69.4531 23.8926 69.1426 24.3359 68.5527L40.5371 46.9531L40.5371 67.2031C40.5371 68.4453 41.5449 69.4531 42.7871 69.4531C44.0293 69.4531 45.0371 68.4453 45.0371 67.2031L45.0371 46.9531L61.2363 68.5527C61.6777 69.1406 62.3555 69.4531 63.0391 69.4531C63.5078 69.4531 63.9824 69.3066 64.3867 69.0039C65.3789 68.2578 65.5801 66.8477 64.8359 65.8535Z" fill="#55525B" fill-opacity="1.000000" fill-rule="nonzero"/>
			<g clip-path="url(#clip2645_1098)">
				<path id="Vector" d="M36.0312 53.7031C35.0918 53.7031 34.1445 53.4102 33.3359 52.8027C31.3457 51.3105 30.9453 48.4902 32.4355 46.502L39.1855 37.502C40.6777 35.5137 43.498 35.1133 45.4863 36.6016C47.4746 38.0938 47.877 40.9141 46.3848 42.9023L39.6348 51.9023C38.752 53.082 37.4004 53.7031 36.0312 53.7031Z" fill="#5C76B2" fill-opacity="1.000000" fill-rule="nonzero"/>
			</g>
			<g clip-path="url(#clip2645_1100)">
				<path id="Vector" d="M49.5391 53.7051C48.1699 53.7051 46.8203 53.084 45.9355 51.9043L39.1855 42.9043C37.6953 40.916 38.0977 38.0957 40.0859 36.6035C42.0723 35.1133 44.8926 35.5137 46.3848 37.5039L53.1348 46.5039C54.625 48.4922 54.2227 51.3105 52.2344 52.8047C51.4258 53.4121 50.4785 53.7051 49.5391 53.7051Z" fill="#5C76B2" fill-opacity="1.000000" fill-rule="nonzero"/>
			</g>
			<g clip-path="url(#clip2645_1102)">
				<g clip-path="url(#clip2645_1103)">
					<path id="Vector" d="M63.7969 13.4941L59.3652 12.7129C55.6934 12.0664 52.1934 14.5176 51.5449 18.1875C50.8984 21.8594 53.3496 25.3594 57.0195 26.0078L61.4512 26.791C65.123 27.4375 68.623 24.9863 69.2715 21.3145C69.918 17.6426 67.4668 14.1426 63.7969 13.4941Z" fill="#F68820" fill-opacity="1.000000" fill-rule="nonzero"/>
				</g>
				<g clip-path="url(#clip2645_1105)">
					<path id="Vector" d="M64.9434 19.3613C64.9434 23.0898 61.9219 26.1113 58.1934 26.1113C54.4648 26.1113 51.4434 23.0898 51.4434 19.3613C51.4434 15.6328 54.4648 12.6113 58.1934 12.6113C61.9219 12.6113 64.9434 15.6328 64.9434 19.3613Z" fill="#FBBE18" fill-opacity="1.000000" fill-rule="evenodd"/>
				</g>
				<g clip-path="url(#clip2645_1107)">
					<path id="Vector" d="M57.4102 23.793L41.9004 21.0586L43.4629 12.1953L58.9727 14.9297C61.4219 15.3613 63.0547 17.6953 62.623 20.1426C62.1914 22.5898 59.8594 24.2246 57.4102 23.793Z" fill="#6FA4D8" fill-opacity="1.000000" fill-rule="nonzero"/>
				</g>
				<g clip-path="url(#clip2645_1109)">
					<path id="Vector" d="M41.9004 21.0586L57.4102 23.793C59.8594 24.2246 62.1914 22.5898 62.623 20.1426L42.6816 16.627L41.9004 21.0586Z" fill="#5C76B2" fill-opacity="1.000000" fill-rule="nonzero"/>
				</g>
				<g clip-path="url(#clip2645_1111)">
					<path id="Vector" d="M37.0762 22.4922L21.5664 19.7578L23.9102 6.46289L39.4219 9.19727C43.0918 9.84375 45.543 13.3457 44.8965 17.0176C44.25 20.6895 40.748 23.1406 37.0762 22.4922Z" fill="#6FA4D8" fill-opacity="1.000000" fill-rule="nonzero"/>
				</g>
				<g clip-path="url(#clip2645_1113)">
					<path id="Vector" d="M21.5664 19.7578L37.0762 22.4922C40.748 23.1387 44.248 20.6875 44.8965 17.0156L22.7383 13.1094L21.5664 19.7578Z" fill="#5C76B2" fill-opacity="1.000000" fill-rule="nonzero"/>
				</g>
				<g clip-path="url(#clip2645_1115)">
					<path id="Vector" d="M20.2598 1.25L15.8281 0.466797C9.71094 -0.611328 3.875 3.47461 2.79492 9.59375C1.7168 15.7129 5.80273 21.5469 11.9219 22.627L16.3535 23.4082C22.4727 24.4883 28.3066 20.4023 29.3867 14.2832C30.4648 8.16211 26.3789 2.32812 20.2598 1.25Z" fill="#F68820" fill-opacity="1.000000" fill-rule="nonzero"/>
				</g>
				<g clip-path="url(#clip2645_1117)">
					<path id="Vector" d="M25.127 11.5469C25.127 17.7598 20.0898 22.7969 13.877 22.7969C7.66406 22.7969 2.62695 17.7598 2.62695 11.5469C2.62695 5.33398 7.66406 0.296875 13.877 0.296875C20.0898 0.296875 25.127 5.33398 25.127 11.5469Z" fill="#FBBE18" fill-opacity="1.000000" fill-rule="evenodd"/>
				</g>
				<g clip-path="url(#clip2645_1119)">
					<path id="Vector" d="M22.877 11.5469C22.877 16.5176 18.8477 20.5469 13.877 20.5469C8.90625 20.5469 4.87695 16.5176 4.87695 11.5469C4.87695 6.57617 8.90625 2.54688 13.877 2.54688C18.8477 2.54688 22.877 6.57617 22.877 11.5469Z" fill="#55525B" fill-opacity="1.000000" fill-rule="evenodd"/>
				</g>
				<g clip-path="url(#clip2645_1121)">
					<path id="Vector" d="M12.75 2.61719C9.81055 2.98828 7.22266 4.79883 5.87109 7.43359C6.29297 9.09766 7.64453 10.4492 9.44727 10.7676C11.8945 11.1992 14.2285 9.56445 14.6602 7.11523C14.9766 5.31445 14.1699 3.58203 12.75 2.61719Z" fill="#B3B4B6" fill-opacity="1.000000" fill-rule="nonzero"/>
				</g>
			</g>
			<g clip-path="url(#clip2645_1123)">
				<path id="Vector" d="M49.5352 19.9531C49.5352 22.4375 47.5195 24.4531 45.0352 24.4531C42.5508 24.4531 40.5352 22.4375 40.5352 19.9531C40.5352 17.4688 42.5508 15.4531 45.0352 15.4531C47.5195 15.4531 49.5352 17.4688 49.5352 19.9531Z" fill="#FBBE18" fill-opacity="1.000000" fill-rule="evenodd"/>
			</g>
			<g clip-path="url(#clip2645_1125)">
				<path id="Vector" d="M47.2852 19.9531C47.2852 21.1953 46.2773 22.2031 45.0352 22.2031C43.793 22.2031 42.7852 21.1953 42.7852 19.9531C42.7852 18.7109 43.793 17.7031 45.0352 17.7031C46.2773 17.7031 47.2852 18.7109 47.2852 19.9531Z" fill="#55525B" fill-opacity="1.000000" fill-rule="evenodd"/>
			</g>
			<g clip-path="url(#clip2645_1127)">
				<path id="Vector" d="M27.0352 67.2031C27.0352 69.6875 25.0195 71.7031 22.5352 71.7031C20.0508 71.7031 18.0352 69.6875 18.0352 67.2031C18.0352 64.7188 20.0508 62.7031 22.5352 62.7031C25.0195 62.7031 27.0352 64.7188 27.0352 67.2031Z" fill="#F68820" fill-opacity="1.000000" fill-rule="evenodd"/>
			</g>
			<g clip-path="url(#clip2645_1129)">
				<path id="Vector" d="M67.5352 67.2031C67.5352 69.6875 65.5195 71.7031 63.0352 71.7031C60.5508 71.7031 58.5352 69.6875 58.5352 67.2031C58.5352 64.7188 60.5508 62.7031 63.0352 62.7031C65.5195 62.7031 67.5352 64.7188 67.5352 67.2031Z" fill="#F68820" fill-opacity="1.000000" fill-rule="evenodd"/>
			</g>
			<g clip-path="url(#clip2645_1131)">
				<path id="Vector" d="M47.2852 67.2031C47.2852 69.6875 45.2695 71.7031 42.7852 71.7031C40.3008 71.7031 38.2852 69.6875 38.2852 67.2031C38.2852 64.7188 40.3008 62.7031 42.7852 62.7031C45.2695 62.7031 47.2852 64.7188 47.2852 67.2031Z" fill="#F68820" fill-opacity="1.000000" fill-rule="evenodd"/>
			</g>
			<g clip-path="url(#clip2645_1133)">
				<path id="Vector" d="M42.7852 53.7031C40.3008 53.7031 38.2852 51.6875 38.2852 49.2031L38.2852 40.2031C38.2852 37.7188 40.3008 35.7031 42.7852 35.7031C45.2695 35.7031 47.2852 37.7188 47.2852 40.2031L47.2852 49.2031C47.2852 51.6875 45.2695 53.7031 42.7852 53.7031Z" fill="#F68820" fill-opacity="1.000000" fill-rule="nonzero"/>
			</g>
			<g clip-path="url(#clip2645_1135)">
				<path id="Vector" d="M42.7852 53.7031C40.3008 53.7031 38.2852 51.6875 38.2852 49.2031L38.2852 40.2031C38.2852 37.7188 40.3008 35.7031 42.7852 35.7031C45.2695 35.7031 47.2852 37.7188 47.2852 40.2031L47.2852 49.2031C47.2852 51.6875 45.2695 53.7031 42.7852 53.7031Z" fill="#6FA4D8" fill-opacity="1.000000" fill-rule="nonzero"/>
			</g>
		</g>
	</g>
</svg>
