<svg width="72.000000" height="72.000000" viewBox="0 0 72 72" fill="none" xmlns="http://www.w3.org/2000/svg" xmlns:xlink="http://www.w3.org/1999/xlink">
	<desc>
			Created with Pixso.
	</desc>
	<defs>
		<clipPath id="clip2645_1140">
			<rect id="Frame" width="47.261925" height="38.250000" transform="translate(12.369141 32.625000)" fill="white" fill-opacity="0"/>
		</clipPath>
		<clipPath id="clip2645_1142">
			<rect id="Frame" width="30.380966" height="38.250000" transform="translate(29.250000 32.625000)" fill="white" fill-opacity="0"/>
		</clipPath>
		<clipPath id="clip2645_1144">
			<rect id="Frame" width="18.000000" height="4.500000" transform="translate(27.000000 28.125000)" fill="white" fill-opacity="0"/>
		</clipPath>
		<clipPath id="clip2645_1146">
			<rect id="Frame" width="9.000000" height="4.500000" transform="translate(36.000000 28.125000)" fill="white" fill-opacity="0"/>
		</clipPath>
		<clipPath id="clip2645_1148">
			<rect id="Frame" width="36.000000" height="13.643005" transform="translate(18.000000 52.732422)" fill="white" fill-opacity="0"/>
		</clipPath>
		<clipPath id="clip2645_1150">
			<rect id="Frame" width="36.000000" height="13.643005" transform="translate(18.000000 52.732422)" fill="white" fill-opacity="0"/>
		</clipPath>
		<clipPath id="clip2645_1152">
			<rect id="Frame" width="14.959126" height="13.635727" transform="translate(39.041016 52.740234)" fill="white" fill-opacity="0"/>
		</clipPath>
		<clipPath id="clip2645_1154">
			<rect id="Frame" width="3.375000" height="3.375000" transform="translate(30.375000 59.062500)" fill="white" fill-opacity="0"/>
		</clipPath>
		<clipPath id="clip2645_1156">
			<rect id="Frame" width="2.250000" height="2.250000" transform="translate(27.000000 62.437500)" fill="white" fill-opacity="0"/>
		</clipPath>
		<clipPath id="clip2645_1158">
			<rect id="Frame" width="11.250000" height="11.250000" transform="translate(24.750000 10.125000)" fill="white" fill-opacity="0"/>
		</clipPath>
		<clipPath id="clip2645_1160">
			<rect id="Frame" width="3.375000" height="3.375000" transform="translate(27.000000 12.375000)" fill="white" fill-opacity="0"/>
		</clipPath>
		<clipPath id="clip2645_1162">
			<rect id="Frame" width="6.750000" height="6.750000" transform="translate(38.250000 19.125000)" fill="white" fill-opacity="0"/>
		</clipPath>
		<clipPath id="clip2645_1164">
			<rect id="Frame" width="2.250000" height="2.250000" transform="translate(39.375000 20.250000)" fill="white" fill-opacity="0"/>
		</clipPath>
		<clipPath id="clip2645_1166">
			<rect id="Frame" width="2.812500" height="4.500000" transform="translate(43.593750 1.125000)" fill="white" fill-opacity="0"/>
		</clipPath>
		<clipPath id="clip2645_1168">
			<rect id="Frame" width="4.085480" height="2.956991" transform="translate(38.966797 3.796875)" fill="white" fill-opacity="0"/>
		</clipPath>
		<clipPath id="clip2645_1170">
			<rect id="Frame" width="4.085819" height="2.956992" transform="translate(38.964844 8.996094)" fill="white" fill-opacity="0"/>
		</clipPath>
		<clipPath id="clip2645_1172">
			<rect id="Frame" width="2.812500" height="4.500000" transform="translate(43.593750 10.125000)" fill="white" fill-opacity="0"/>
		</clipPath>
		<clipPath id="clip2645_1174">
			<rect id="Frame" width="4.086578" height="2.956992" transform="translate(46.949219 8.996094)" fill="white" fill-opacity="0"/>
		</clipPath>
		<clipPath id="clip2645_1176">
			<rect id="Frame" width="4.085476" height="2.957490" transform="translate(46.949219 3.794922)" fill="white" fill-opacity="0"/>
		</clipPath>
		<clipPath id="clip2645_1139">
			<rect id="Frame" width="47.261932" height="69.750000" transform="translate(12.369141 1.125000)" fill="white" fill-opacity="0"/>
		</clipPath>
		<clipPath id="clip2645_1138">
			<rect id="006-flask" width="72.000000" height="72.000000" fill="white" fill-opacity="0"/>
		</clipPath>
	</defs>
	<rect id="006-flask" width="72.000000" height="72.000000" fill="#FFFFFF" fill-opacity="0"/>
	<g clip-path="url(#clip2645_1138)">
		<g clip-path="url(#clip2645_1139)">
			<g clip-path="url(#clip2645_1140)">
				<path id="Vector" d="M42.75 43.875L42.75 32.625L29.25 32.625L29.25 43.875L13.0508 65.4746C11.3809 67.7012 12.9688 70.875 15.75 70.875L56.25 70.875C59.0312 70.875 60.6191 67.7012 58.9492 65.4746L42.75 43.875Z" fill="#6FA4D8" fill-opacity="1.000000" fill-rule="nonzero"/>
			</g>
			<g clip-path="url(#clip2645_1142)">
				<path id="Vector" d="M58.9492 65.4746L42.75 43.875L42.75 32.625L36 32.625L29.25 32.625L29.25 35.4375L34.3125 35.4375C35.2441 35.4375 36 36.1934 36 37.125L36 43.875L45 70.875L56.25 70.875C59.0312 70.875 60.6191 67.7012 58.9492 65.4746Z" fill="#5C76B2" fill-opacity="1.000000" fill-rule="nonzero"/>
			</g>
			<g clip-path="url(#clip2645_1144)">
				<path id="Vector" d="M42.75 32.625L29.25 32.625C28.0078 32.625 27 31.6172 27 30.375C27 29.1328 28.0078 28.125 29.25 28.125L42.75 28.125C43.9922 28.125 45 29.1328 45 30.375C45 31.6172 43.9922 32.625 42.75 32.625Z" fill="#6FA4D8" fill-opacity="1.000000" fill-rule="nonzero"/>
			</g>
			<g clip-path="url(#clip2645_1146)">
				<path id="Vector" d="M42.75 28.125L36 28.125C37.2422 28.125 38.25 29.1328 38.25 30.375C38.25 31.6172 37.2422 32.625 36 32.625L42.75 32.625C43.9922 32.625 45 31.6172 45 30.375C45 29.1328 43.9922 28.125 42.75 28.125Z" fill="#5C76B2" fill-opacity="1.000000" fill-rule="nonzero"/>
			</g>
			<g clip-path="url(#clip2645_1148)">
				<path id="Vector" d="M54 66.375L18 66.375L26.4375 55.125L26.4395 55.125C28.8281 51.9355 33.6113 51.9355 36.002 55.1211L36.002 55.123C38.3926 58.3086 43.1699 58.3105 45.5625 55.125L54 66.375Z" fill="#F68820" fill-opacity="1.000000" fill-rule="nonzero"/>
			</g>
			<g clip-path="url(#clip2645_1150)">
				<path id="Vector" d="M45.5625 55.125L45.5605 55.125C43.1719 51.9355 38.3887 51.9355 35.998 55.1211L35.998 55.123C33.6074 58.3086 28.8301 58.3105 26.4375 55.125L18 66.375L54 66.375L45.5625 55.125Z" fill="#FBBE18" fill-opacity="1.000000" fill-rule="nonzero"/>
			</g>
			<g clip-path="url(#clip2645_1152)">
				<path id="Vector" d="M45.5625 55.125L45.5605 55.125C43.9746 53.0078 41.3359 52.3047 39.041 52.998L43.5 66.375L54 66.375L45.5625 55.125Z" fill="#F68820" fill-opacity="1.000000" fill-rule="nonzero"/>
			</g>
			<g clip-path="url(#clip2645_1154)">
				<path id="Vector" d="M33.75 60.75C33.75 61.6816 32.9941 62.4375 32.0625 62.4375C31.1309 62.4375 30.375 61.6816 30.375 60.75C30.375 59.8184 31.1309 59.0625 32.0625 59.0625C32.9941 59.0625 33.75 59.8184 33.75 60.75Z" fill="#F68820" fill-opacity="1.000000" fill-rule="evenodd"/>
			</g>
			<g clip-path="url(#clip2645_1156)">
				<path id="Vector" d="M29.25 63.5625C29.25 64.1836 28.7461 64.6875 28.125 64.6875C27.5039 64.6875 27 64.1836 27 63.5625C27 62.9414 27.5039 62.4375 28.125 62.4375C28.7461 62.4375 29.25 62.9414 29.25 63.5625Z" fill="#F68820" fill-opacity="1.000000" fill-rule="evenodd"/>
			</g>
			<g clip-path="url(#clip2645_1158)">
				<path id="Vector" d="M36 15.75C36 18.8574 33.4824 21.375 30.375 21.375C27.2676 21.375 24.75 18.8574 24.75 15.75C24.75 12.6426 27.2676 10.125 30.375 10.125C33.4824 10.125 36 12.6426 36 15.75Z" fill="#F68820" fill-opacity="1.000000" fill-rule="evenodd"/>
			</g>
			<g clip-path="url(#clip2645_1160)">
				<path id="Vector" d="M30.375 14.0625C30.375 14.9941 29.6191 15.75 28.6875 15.75C27.7559 15.75 27 14.9941 27 14.0625C27 13.1309 27.7559 12.375 28.6875 12.375C29.6191 12.375 30.375 13.1309 30.375 14.0625Z" fill="#FBBE18" fill-opacity="1.000000" fill-rule="evenodd"/>
			</g>
			<g clip-path="url(#clip2645_1162)">
				<path id="Vector" d="M45 22.5C45 24.3633 43.4883 25.875 41.625 25.875C39.7617 25.875 38.25 24.3633 38.25 22.5C38.25 20.6367 39.7617 19.125 41.625 19.125C43.4883 19.125 45 20.6367 45 22.5Z" fill="#F68820" fill-opacity="1.000000" fill-rule="evenodd"/>
			</g>
			<g clip-path="url(#clip2645_1164)">
				<path id="Vector" d="M41.625 21.375C41.625 21.9961 41.1211 22.5 40.5 22.5C39.8789 22.5 39.375 21.9961 39.375 21.375C39.375 20.7539 39.8789 20.25 40.5 20.25C41.1211 20.25 41.625 20.7539 41.625 21.375Z" fill="#FBBE18" fill-opacity="1.000000" fill-rule="evenodd"/>
			</g>
			<g clip-path="url(#clip2645_1166)">
				<path id="Vector" d="M46.4062 2.53125C46.4062 3.30664 45 5.625 45 5.625C45 5.625 43.5938 3.30664 43.5938 2.53125C43.5938 1.75586 44.2246 1.125 45 1.125C45.7754 1.125 46.4062 1.75586 46.4062 2.53125Z" fill="#F68820" fill-opacity="1.000000" fill-rule="nonzero"/>
			</g>
			<g clip-path="url(#clip2645_1168)">
				<path id="Vector" d="M41.0762 3.98438C41.748 4.375 43.0527 6.75 43.0527 6.75C43.0527 6.75 40.3418 6.81055 39.6699 6.42188C38.998 6.0332 38.7676 5.17383 39.1562 4.5C39.543 3.82812 40.4043 3.59766 41.0762 3.98438Z" fill="#F68820" fill-opacity="1.000000" fill-rule="nonzero"/>
			</g>
			<g clip-path="url(#clip2645_1170)">
				<path id="Vector" d="M39.668 9.32812C40.3398 8.93945 43.0508 9 43.0508 9C43.0508 9 41.7461 11.375 41.0742 11.7637C40.4004 12.1523 39.541 11.9219 39.1523 11.25C38.7656 10.5762 38.9961 9.7168 39.668 9.32812Z" fill="#F68820" fill-opacity="1.000000" fill-rule="nonzero"/>
			</g>
			<g clip-path="url(#clip2645_1172)">
				<path id="Vector" d="M43.5938 13.2188C43.5938 12.4434 45 10.125 45 10.125C45 10.125 46.4062 12.4434 46.4062 13.2188C46.4062 13.9941 45.7754 14.625 45 14.625C44.2246 14.625 43.5938 13.9941 43.5938 13.2188Z" fill="#F68820" fill-opacity="1.000000" fill-rule="nonzero"/>
			</g>
			<g clip-path="url(#clip2645_1174)">
				<path id="Vector" d="M48.9258 11.7637C48.2539 11.375 46.9492 9 46.9492 9C46.9492 9 49.6602 8.93945 50.332 9.32812C51.0039 9.7168 51.2363 10.5762 50.8477 11.25C50.459 11.9219 49.5977 12.1523 48.9258 11.7637Z" fill="#F68820" fill-opacity="1.000000" fill-rule="nonzero"/>
			</g>
			<g clip-path="url(#clip2645_1176)">
				<path id="Vector" d="M50.332 6.41992C49.6602 6.80859 46.9492 6.75 46.9492 6.75C46.9492 6.75 48.2539 4.37305 48.9258 3.98438C49.5977 3.59375 50.459 3.82617 50.8457 4.5C51.2344 5.17188 51.0039 6.03125 50.332 6.41992Z" fill="#F68820" fill-opacity="1.000000" fill-rule="nonzero"/>
			</g>
		</g>
	</g>
</svg>
