<svg width="149.380859" height="18.000000" viewBox="0 0 149.381 18" fill="none" xmlns="http://www.w3.org/2000/svg" xmlns:xlink="http://www.w3.org/1999/xlink">
	<desc>
			Created with Pixso.
	</desc>
	<defs/>
	<path id="BrandName" d="M12.334 9.07031Q13.7754 9.52734 14.5898 10.5938Q15.4102 11.6602 15.4102 13.2246Q15.4102 15.4277 13.6934 16.6172Q11.9766 17.8066 8.68945 17.8066L0 17.8066L0 1.00781L8.20898 1.00781Q11.2793 1.00781 12.9199 2.18555Q14.5664 3.35742 14.5664 5.37305Q14.5664 6.59766 13.9805 7.55859Q13.3945 8.51953 12.334 9.07031ZM3.86133 3.9375L3.86133 7.89258L7.72852 7.89258Q9.16992 7.89258 9.91406 7.38867Q10.6582 6.88477 10.6582 5.90039Q10.6582 4.91602 9.91406 4.42969Q9.16992 3.9375 7.72852 3.9375L3.86133 3.9375ZM8.40234 14.877Q9.9375 14.877 10.7168 14.373Q11.4961 13.8691 11.4961 12.8145Q11.4961 10.7285 8.40234 10.7285L3.86133 10.7285L3.86133 14.877L8.40234 14.877ZM21.7705 6.59766Q22.4444 5.66016 23.5811 5.18555Q24.7237 4.70508 26.212 4.70508L26.212 8.15625Q25.585 8.10938 25.3741 8.10938Q23.7627 8.10938 22.8487 9.01172Q21.9405 9.9082 21.9405 11.7129L21.9405 17.8066L18.1963 17.8066L18.1963 4.89258L21.7705 4.89258L21.7705 6.59766ZM33.6813 4.70508Q36.6813 4.70508 38.2868 6.13477Q39.8981 7.55859 39.8981 10.4414L39.8981 17.8066L36.3942 17.8066L36.3942 16.2012Q35.3337 18 32.4567 18Q30.9684 18 29.8727 17.4961Q28.7829 16.9922 28.2087 16.1074Q27.6344 15.2168 27.6344 14.0859Q27.6344 12.2871 28.988 11.2559Q30.3415 10.2246 33.1774 10.2246L36.154 10.2246Q36.154 9 35.4098 8.33789Q34.6657 7.67578 33.1774 7.67578Q32.1462 7.67578 31.1501 8.00391Q30.154 8.32617 29.4567 8.87695L28.109 6.26367Q29.1696 5.51953 30.6462 5.11523Q32.1227 4.70508 33.6813 4.70508ZM33.3942 15.4805Q34.3493 15.4805 35.0934 15.0352Q35.8376 14.5898 36.154 13.7285L36.154 12.4043L33.5817 12.4043Q31.279 12.4043 31.279 13.916Q31.279 14.6367 31.8415 15.0586Q32.4098 15.4805 33.3942 15.4805ZM51.226 4.70508Q53.6284 4.70508 55.1049 6.14648Q56.5815 7.58203 56.5815 10.4121L56.5815 17.8066L52.8374 17.8066L52.8374 10.9922Q52.8374 9.45703 52.1635 8.70117Q51.4897 7.94531 50.2182 7.94531Q48.8061 7.94531 47.9624 8.82422Q47.1245 9.69727 47.1245 11.4199L47.1245 17.8066L43.3803 17.8066L43.3803 4.89258L46.9545 4.89258L46.9545 6.4043Q47.6987 5.58984 48.8003 5.15039Q49.9077 4.70508 51.226 4.70508ZM73.3626 0L73.3626 17.8066L69.7825 17.8066L69.7825 16.3184Q68.3939 18 65.7513 18Q63.929 18 62.4525 17.1855Q60.9759 16.3652 60.1322 14.8535Q59.2943 13.3418 59.2943 11.3496Q59.2943 9.35742 60.1322 7.8457Q60.9759 6.33398 62.4525 5.51953Q63.929 4.70508 65.7513 4.70508Q68.224 4.70508 69.6185 6.26367L69.6185 0L73.3626 0ZM66.4017 14.9238Q67.8138 14.9238 68.7513 13.957Q69.6888 12.9844 69.6888 11.3496Q69.6888 9.7207 68.7513 8.74805Q67.8138 7.77539 66.4017 7.77539Q64.9603 7.77539 64.0228 8.74805Q63.0853 9.7207 63.0853 11.3496Q63.0853 12.9844 64.0228 13.957Q64.9603 14.9238 66.4017 14.9238ZM92.5902 1.00781L92.5902 17.8066L89.3968 17.8066L81.0179 7.60547L81.0179 17.8066L77.18 17.8066L77.18 1.00781L80.3968 1.00781L88.7464 11.209L88.7464 1.00781L92.5902 1.00781ZM101.617 4.70508Q104.617 4.70508 106.223 6.13477Q107.834 7.55859 107.834 10.4414L107.834 17.8066L104.33 17.8066L104.33 16.2012Q103.27 18 100.393 18Q98.9044 18 97.8087 17.4961Q96.7189 16.9922 96.1447 16.1074Q95.5704 15.2168 95.5704 14.0859Q95.5704 12.2871 96.924 11.2559Q98.2775 10.2246 101.113 10.2246L104.09 10.2246Q104.09 9 103.346 8.33789Q102.602 7.67578 101.113 7.67578Q100.082 7.67578 99.0861 8.00391Q98.09 8.32617 97.3927 8.87695L96.045 6.26367Q97.1056 5.51953 98.5822 5.11523Q100.059 4.70508 101.617 4.70508ZM101.33 15.4805Q102.285 15.4805 103.029 15.0352Q103.774 14.5898 104.09 13.7285L104.09 12.4043L101.518 12.4043Q99.215 12.4043 99.215 13.916Q99.215 14.6367 99.7775 15.0586Q100.346 15.4805 101.33 15.4805ZM127.851 4.70508Q130.277 4.70508 131.701 6.13477Q133.131 7.55859 133.131 10.4121L133.131 17.8066L129.387 17.8066L129.387 10.9922Q129.387 9.45703 128.748 8.70117Q128.115 7.94531 126.937 7.94531Q125.619 7.94531 124.851 8.79492Q124.084 9.64453 124.084 11.3262L124.084 17.8066L120.34 17.8066L120.34 10.9922Q120.34 7.94531 117.891 7.94531Q116.596 7.94531 115.828 8.79492Q115.06 9.64453 115.06 11.3262L115.06 17.8066L111.316 17.8066L111.316 4.89258L114.891 4.89258L114.891 6.38086Q115.611 5.56641 116.654 5.13867Q117.697 4.70508 118.945 4.70508Q120.316 4.70508 121.418 5.24414Q122.525 5.7832 123.193 6.81445Q123.99 5.80664 125.197 5.25586Q126.41 4.70508 127.851 4.70508ZM149.381 11.3965Q149.381 11.4727 149.311 12.4043L139.543 12.4043Q139.807 13.6055 140.791 14.3027Q141.775 15 143.24 15Q144.248 15 145.027 14.7012Q145.807 14.3965 146.48 13.752L148.473 15.9082Q146.65 18 143.146 18Q140.961 18 139.279 17.1504Q137.598 16.2949 136.684 14.7832Q135.775 13.2715 135.775 11.3496Q135.775 9.45703 136.672 7.93359Q137.574 6.4043 139.145 5.55469Q140.721 4.70508 142.666 4.70508Q144.559 4.70508 146.094 5.51953Q147.629 6.33398 148.502 7.85742Q149.381 9.38086 149.381 11.3965ZM142.689 7.53516Q141.418 7.53516 140.551 8.25586Q139.689 8.97656 139.496 10.2246L145.854 10.2246Q145.666 9 144.799 8.26758Q143.938 7.53516 142.689 7.53516Z" fill="#252B42" fill-opacity="1.000000" fill-rule="evenodd"/>
</svg>
