<svg width="18.345703" height="18.347656" viewBox="0 0 18.3457 18.3477" fill="none" xmlns="http://www.w3.org/2000/svg" xmlns:xlink="http://www.w3.org/1999/xlink">
	<desc>
			Created with Pixso.
	</desc>
	<defs/>
	<path id="Vector" d="M18.2969 6.58594C18.2383 6.41602 18.1328 6.26758 17.9902 6.1582C17.8496 6.04688 17.6777 5.98047 17.5 5.9668L12.2715 5.55078L10.0078 0.542969C9.93555 0.380859 9.81836 0.244141 9.66992 0.148438C9.52148 0.0507812 9.34961 0 9.17188 0C8.99609 0 8.82227 0.0507812 8.67383 0.146484C8.52734 0.242188 8.4082 0.380859 8.33594 0.541016L6.07422 5.55078L0.845703 5.9668C0.669922 5.98047 0.501953 6.04492 0.361328 6.15234C0.220703 6.25781 0.115234 6.4043 0.0546875 6.56836C-0.00585938 6.73438 -0.015625 6.91406 0.0234375 7.08594C0.0625 7.25781 0.150391 7.41406 0.277344 7.53711L4.14062 11.3047L2.77539 17.2227C2.73242 17.4023 2.74609 17.5898 2.8125 17.7617C2.87891 17.9316 2.99609 18.0801 3.14648 18.1836C3.29883 18.2891 3.47656 18.3457 3.66211 18.3477C3.8457 18.3477 4.02539 18.2949 4.17773 18.1934L9.17188 14.8633L14.166 18.1934C14.3223 18.2969 14.5078 18.3496 14.6953 18.3457C14.8828 18.3418 15.0645 18.2793 15.2148 18.1699C15.3672 18.0586 15.4805 17.9043 15.543 17.7266C15.6035 17.5508 15.6094 17.3594 15.5586 17.1777L13.8809 11.3086L18.041 7.56445C18.3145 7.31836 18.4141 6.93359 18.2969 6.58594Z" fill="#F3CD03" fill-opacity="1.000000" fill-rule="nonzero"/>
</svg>
