<svg width="18.343750" height="18.347656" viewBox="0 0 18.3438 18.3477" fill="none" xmlns="http://www.w3.org/2000/svg" xmlns:xlink="http://www.w3.org/1999/xlink">
	<desc>
			Created with Pixso.
	</desc>
	<defs/>
	<path id="Vector" d="M4.14258 11.3047L2.77539 17.2227C2.73242 17.4023 2.74609 17.5898 2.8125 17.7617C2.87891 17.9336 2.99414 18.082 3.14648 18.1855C3.29688 18.291 3.47656 18.3477 3.66016 18.3477C3.8457 18.3496 4.02539 18.2949 4.17773 18.1914L9.17188 14.8633L14.166 18.1914C14.3223 18.2949 14.5078 18.3496 14.6953 18.3457C14.8828 18.3418 15.0645 18.2793 15.2148 18.168C15.3672 18.0586 15.4805 17.9043 15.543 17.7266C15.6035 17.5488 15.6094 17.3574 15.5586 17.1777L13.8809 11.3066L18.041 7.5625C18.1738 7.44336 18.2695 7.28711 18.3145 7.11328C18.3594 6.93945 18.3535 6.75586 18.2969 6.58594C18.2383 6.41797 18.1328 6.26758 17.9902 6.1582C17.8496 6.04688 17.6777 5.98047 17.5 5.9668L12.2715 5.55078L10.0078 0.541016C9.93555 0.380859 9.81836 0.244141 9.66992 0.146484C9.52148 0.0507812 9.34961 0 9.17188 0C8.99609 0 8.82227 0.0507812 8.67383 0.146484C8.52539 0.244141 8.4082 0.380859 8.33594 0.541016L6.07422 5.55078L0.845703 5.9668C0.669922 5.98047 0.501953 6.04492 0.361328 6.15039C0.220703 6.25781 0.115234 6.40234 0.0546875 6.56836C-0.00585938 6.73438 -0.015625 6.91406 0.0234375 7.08594C0.0625 7.25781 0.150391 7.41406 0.277344 7.53711L4.14258 11.3047ZM6.75977 7.33594C6.92188 7.32422 7.08008 7.26758 7.21484 7.17188C7.34766 7.07812 7.45508 6.94922 7.52148 6.79883L9.17188 3.14648L10.8223 6.79883C10.8906 6.94922 10.9961 7.07812 11.1309 7.17188C11.2656 7.26758 11.4219 7.32422 11.5859 7.33594L15.2285 7.625L12.2285 10.3262C11.9688 10.5605 11.8652 10.9219 11.959 11.2598L13.1094 15.2812L9.68164 12.9961C9.53125 12.8965 9.35547 12.8418 9.17383 12.8418C8.99219 12.8418 8.81641 12.8965 8.66602 12.9961L5.08398 15.3848L6.04688 11.2148C6.08203 11.0605 6.07812 10.9004 6.0332 10.75C5.98828 10.5996 5.90625 10.4629 5.79492 10.3516L3.00781 7.63477L6.75977 7.33594Z" fill="#F3CD03" fill-opacity="1.000000" fill-rule="nonzero"/>
</svg>
